<svg xmlns="http://www.w3.org/2000/svg" viewBox="115 4 1121 1169" width="1121" height="1169" role="img" aria-labelledby="av-title"><title id="av-title">SUB-GOAL 1. Central Health Workforce Registry  — WHO Models</title><style>
.av-name{font:600 11px system-ui,-apple-system,"Segoe UI",sans-serif;fill:#111}
.av-type{font:italic 8px system-ui,sans-serif;fill:#555}
.av-group{font:600 11px system-ui,sans-serif;fill:#333}
.av-note{font:10px system-ui,sans-serif;fill:#222}
.av-rel{font:9px system-ui,sans-serif;fill:#333;paint-order:stroke;stroke:#fff;stroke-width:3px}
a:hover rect,a:hover polygon,a:focus rect,a:focus polygon{stroke:#06c;stroke-width:2.5}
</style><defs>
<marker id="arrow-open" viewBox="0 0 12 12" refX="11" refY="6" markerWidth="11" markerHeight="11" orient="auto-start-reverse" markerUnits="userSpaceOnUse"><path d="M1 1 L11 6 L1 11" fill="none" stroke="#333" stroke-width="1.3"/></marker>
<marker id="arrow-filled" viewBox="0 0 12 12" refX="11" refY="6" markerWidth="11" markerHeight="11" orient="auto-start-reverse" markerUnits="userSpaceOnUse"><path d="M1 1 L11 6 L1 11 Z" fill="#333"/></marker>
<marker id="arrow-small" viewBox="0 0 10 10" refX="9" refY="5" markerWidth="8" markerHeight="8" orient="auto-start-reverse" markerUnits="userSpaceOnUse"><path d="M1 1 L9 5 L1 9" fill="none" stroke="#333" stroke-width="1.2"/></marker>
<marker id="triangle-hollow" viewBox="0 0 14 14" refX="13" refY="7" markerWidth="13" markerHeight="13" orient="auto-start-reverse" markerUnits="userSpaceOnUse"><path d="M1 1 L13 7 L1 13 Z" fill="#fff" stroke="#333" stroke-width="1.2"/></marker>
<marker id="diamond-filled" viewBox="0 0 16 10" refX="1" refY="5" markerWidth="16" markerHeight="10" orient="auto-start-reverse" markerUnits="userSpaceOnUse"><path d="M1 5 L8 1 L15 5 L8 9 Z" fill="#333"/></marker>
<marker id="diamond-hollow" viewBox="0 0 16 10" refX="1" refY="5" markerWidth="16" markerHeight="10" orient="auto-start-reverse" markerUnits="userSpaceOnUse"><path d="M1 5 L8 1 L15 5 L8 9 Z" fill="#fff" stroke="#333" stroke-width="1.2"/></marker>
<marker id="dot" viewBox="0 0 8 8" refX="4" refY="4" markerWidth="7" markerHeight="7" orient="auto" markerUnits="userSpaceOnUse"><circle cx="4" cy="4" r="3.2" fill="#333"/></marker>
<pattern id="missing" width="8" height="8" patternUnits="userSpaceOnUse" patternTransform="rotate(45)"><rect width="8" height="8" fill="#fff"/><line x1="0" y1="0" x2="0" y2="8" stroke="#d33" stroke-width="2"/></pattern>
</defs><rect x="115" y="4" width="1121" height="1169" fill="#fff"/><g class="av-g"><rect x="135" y="96" width="1081" height="421" fill="#f2f2f2" fill-opacity=".55" stroke="#888"/><rect x="135" y="96" width="1081" height="19.75" fill="#f2f2f2" stroke="#888"/><text class="av-group" x="141" y="110">Health Workforce Motivational</text></g>
<a href="../elements/id-6ad36cbd07b74e1d8e89466857289b7b/" target="_top"><title>Patients (Stakeholder)</title><polygon points="193,144 293,144 303,154 303,189 293,199 193,199 183,189 183,154" fill="#ccccff" stroke="#70708c" stroke-width="1"/><text class="av-type" x="294" y="154" text-anchor="end">Stakeholder</text><text class="av-name" x="243" y="167" text-anchor="middle"><tspan x="243" dy="0">Patients</tspan></text></a>
<a href="../elements/id-84333b40052f4bc0b94e5ece8930cb59/" target="_top"><title>Trust &amp; Safety (Value)</title><polygon points="193,240 293,240 303,250 303,285 293,295 193,295 183,285 183,250" fill="#ccccff" stroke="#70708c" stroke-width="1"/><text class="av-type" x="294" y="250" text-anchor="end">Value</text><text class="av-name" x="243" y="263" text-anchor="middle"><tspan x="243" dy="0">Trust &amp; Safety</tspan></text></a>
<a href="../elements/id-8e0540f0b750475c84b6d7fe268eea82/" target="_top"><title>Establishment of Authoritative National Health Workforce Registry (Outcome)</title><polygon points="217,348 1157,348 1167,358 1167,471 1157,481 217,481 207,471 207,358" fill="#ccccff" stroke="#70708c" stroke-width="1"/><text class="av-type" x="1158" y="358" text-anchor="end">Outcome</text><text class="av-name" x="687" y="371" text-anchor="middle"><tspan x="687" dy="0">Establishment of Authoritative National Health Workforce Registry</tspan></text></a>
<a href="../elements/id-97f39297db5e4bc6b4e7d56423832291/" target="_top"><title>Enabled Health Worker Verification (Outcome)</title><polygon points="541,408 750,408 760,418 760,453 750,463 541,463 531,453 531,418" fill="#ccccff" stroke="#70708c" stroke-width="1"/><text class="av-type" x="751" y="418" text-anchor="end">Outcome</text><text class="av-name" x="645.5" y="431" text-anchor="middle"><tspan x="645.5" dy="0">Enabled Health Worker Verification</tspan></text></a>
<a href="../elements/id-cb9742b6dcb6476a9d2694b6063eeaee/" target="_top"><title>Unique and Verifiable Health Worker ID (Outcome)</title><polygon points="277,408 486,408 496,418 496,453 486,463 277,463 267,453 267,418" fill="#ccccff" stroke="#70708c" stroke-width="1"/><text class="av-type" x="487" y="418" text-anchor="end">Outcome</text><text class="av-name" x="381.5" y="431" text-anchor="middle"><tspan x="381.5" dy="0">Unique and Verifiable Health Worker</tspan><tspan x="381.5" dy="13.75">ID</tspan></text></a>
<a href="../elements/id-1ecf9677fbe143b2a607f8f24579e011/" target="_top"><title>Availability of National Workforce to Location Analytics (Outcome)</title><polygon points="817,411 1097,411 1107,421 1107,450 1097,460 817,460 807,450 807,421" fill="#ccccff" stroke="#70708c" stroke-width="1"/><text class="av-type" x="1098" y="421" text-anchor="end">Outcome</text><text class="av-name" x="957" y="434" text-anchor="middle"><tspan x="957" dy="0">Availability of National Workforce to Location</tspan><tspan x="957" dy="13.75">Analytics</tspan></text></a>
<a href="../elements/id-72c23190981049d9843ea460971cf55f/" target="_top"><title>Health Workers (Stakeholder)</title><polygon points="361,144 461,144 471,154 471,189 461,199 361,199 351,189 351,154" fill="#ccccff" stroke="#70708c" stroke-width="1"/><text class="av-type" x="462" y="154" text-anchor="end">Stakeholder</text><text class="av-name" x="411" y="167" text-anchor="middle"><tspan x="411" dy="0">Health Workers</tspan></text></a>
<a href="../elements/id-14451d665755472089f387e328b55c54/" target="_top"><title>Professional Identity &amp; Security (Value)</title><polygon points="385,240 485,240 495,250 495,285 485,295 385,295 375,285 375,250" fill="#ccccff" stroke="#70708c" stroke-width="1"/><text class="av-type" x="486" y="250" text-anchor="end">Value</text><text class="av-name" x="435" y="263" text-anchor="middle"><tspan x="435" dy="0">Professional</tspan><tspan x="435" dy="13.75">Identity &amp;…</tspan></text></a>
<a href="../elements/id-adac4c1e354249cca013c1241fea0d83/" target="_top"><title>Health Care Institutions (Stakeholder)</title><polygon points="709,144 809,144 819,154 819,189 809,199 709,199 699,189 699,154" fill="#ccccff" stroke="#70708c" stroke-width="1"/><text class="av-type" x="810" y="154" text-anchor="end">Stakeholder</text><text class="av-name" x="759" y="167" text-anchor="middle"><tspan x="759" dy="0">Health Care</tspan><tspan x="759" dy="13.75">Institutions</tspan></text></a>
<a href="../elements/id-7adabecc14134e199554daa0c95681e1/" target="_top"><title>Assured Compliance (Value)</title><polygon points="674,240 774,240 784,250 784,285 774,295 674,295 664,285 664,250" fill="#ccccff" stroke="#70708c" stroke-width="1"/><text class="av-type" x="775" y="250" text-anchor="end">Value</text><text class="av-name" x="724" y="263" text-anchor="middle"><tspan x="724" dy="0">Assured</tspan><tspan x="724" dy="13.75">Compliance</tspan></text></a>
<a href="../elements/id-11ef7ea0e8fc45ecb49587f3a757edad/" target="_top"><title>Health Insurance Organizations (Stakeholder)</title><polygon points="877,144 977,144 987,154 987,189 977,199 877,199 867,189 867,154" fill="#ccccff" stroke="#70708c" stroke-width="1"/><text class="av-type" x="978" y="154" text-anchor="end">Stakeholder</text><text class="av-name" x="927" y="167" text-anchor="middle"><tspan x="927" dy="0">Health Insurance</tspan><tspan x="927" dy="13.75">Organizations</tspan></text></a>
<a href="../elements/id-b53d753a15784e8a8c6d3a6b8aa57499/" target="_top"><title>Financial Integrity (Value)</title><polygon points="848,240 948,240 958,250 958,285 948,295 848,295 838,285 838,250" fill="#ccccff" stroke="#70708c" stroke-width="1"/><text class="av-type" x="949" y="250" text-anchor="end">Value</text><text class="av-name" x="898" y="263" text-anchor="middle"><tspan x="898" dy="0">Financial</tspan><tspan x="898" dy="13.75">Integrity</tspan></text></a>
<a href="../elements/id-8779fce8bfa74bcd82d4b72924822d58/" target="_top"><title>Ministry of Health (Stakeholder)</title><polygon points="1033,144 1133,144 1143,154 1143,189 1133,199 1033,199 1023,189 1023,154" fill="#ccccff" stroke="#70708c" stroke-width="1"/><text class="av-type" x="1134" y="154" text-anchor="end">Stakeholder</text><text class="av-name" x="1083" y="167" text-anchor="middle"><tspan x="1083" dy="0">Ministry of</tspan><tspan x="1083" dy="13.75">Health</tspan></text></a>
<a href="../elements/id-965137ac26b249aa919fc6ffa7ce3957/" target="_top"><title>Data Driven Insights (Value)</title><polygon points="1057,240 1157,240 1167,250 1167,285 1157,295 1057,295 1047,285 1047,250" fill="#ccccff" stroke="#70708c" stroke-width="1"/><text class="av-type" x="1158" y="250" text-anchor="end">Value</text><text class="av-name" x="1107" y="263" text-anchor="middle"><tspan x="1107" dy="0">Data Driven</tspan><tspan x="1107" dy="13.75">Insights</tspan></text></a>
<a href="../elements/id-21774ea337f64aaaa91d94cae6d94ab5/" target="_top"><title>National ID Government Provider (Stakeholder)</title><polygon points="536,144 636,144 646,154 646,189 636,199 536,199 526,189 526,154" fill="#ccccff" stroke="#70708c" stroke-width="1"/><text class="av-type" x="637" y="154" text-anchor="end">Stakeholder</text><text class="av-name" x="586" y="167" text-anchor="middle"><tspan x="586" dy="0">National ID</tspan><tspan x="586" dy="13.75">Government…</tspan></text></a>
<g class="av-g"><rect x="137" y="528" width="1079" height="625" fill="#f2f2f2" fill-opacity=".55" stroke="#888"/><rect x="137" y="528" width="1079" height="19.75" fill="#f2f2f2" stroke="#888"/><text class="av-group" x="143" y="542">Health Workforce Implementation</text></g>
<a href="../elements/id-961cfe0f56b54c5ea4f48c3f34109e0e/" target="_top"><title>DPI-H National Health Workforce Directory/Registry (Application Component)</title><rect x="341" y="912" width="120" height="55" fill="#b5ffff" stroke="#648c8c" stroke-width="1"/><text class="av-type" x="456" y="922" text-anchor="end">Application Component</text><text class="av-name" x="401" y="935" text-anchor="middle"><tspan x="401" dy="0">DPI-H National</tspan><tspan x="401" dy="13.75">Health Workforce…</tspan></text></a>
<a href="../elements/id-d27a9f9d388544deb73618aaf145251c/" target="_top"><title>DPI-F Security &amp; Consent Module (Application Component)</title><rect x="749" y="996" width="120" height="55" fill="#b5ffff" stroke="#648c8c" stroke-width="1"/><text class="av-type" x="864" y="1006" text-anchor="end">Application Component</text><text class="av-name" x="809" y="1019" text-anchor="middle"><tspan x="809" dy="0">DPI-F Security &amp;</tspan><tspan x="809" dy="13.75">Consent Module</tspan></text></a>
<a href="../elements/id-bed24fc6e59048c595b7bde7a22b63f9/" target="_top"><title>Reporting Module (Application Component)</title><rect x="1025" y="912" width="120" height="55" fill="#b5ffff" stroke="#648c8c" stroke-width="1"/><text class="av-type" x="1140" y="922" text-anchor="end">Application Component</text><text class="av-name" x="1085" y="935" text-anchor="middle"><tspan x="1085" dy="0">Reporting Module</tspan></text></a>
<a href="../elements/id-7862a8939c5a458c9ad1674062700688/" target="_top"><title>DPI-F Information Mediator (Application Component)</title><rect x="677" y="912" width="120" height="55" fill="#b5ffff" stroke="#648c8c" stroke-width="1"/><text class="av-type" x="792" y="922" text-anchor="end">Application Component</text><text class="av-name" x="737" y="935" text-anchor="middle"><tspan x="737" dy="0">DPI-F Information</tspan><tspan x="737" dy="13.75">Mediator</tspan></text></a>
<a href="../elements/id-77889a230fcb434aa939b2d3b615aa13/" target="_top"><title>Health Worker (Data Object)</title><rect x="233" y="1080" width="120" height="55" fill="#b5ffff" stroke="#648c8c" stroke-width="1"/><text class="av-type" x="348" y="1090" text-anchor="end">Data Object</text><text class="av-name" x="293" y="1103" text-anchor="middle"><tspan x="293" dy="0">Health Worker</tspan></text></a>
<a href="../elements/id-26b4d761869c48d6a63d03f59adc5022/" target="_top"><title>Facility (Data Object)</title><rect x="581" y="1080" width="120" height="55" fill="#b5ffff" stroke="#648c8c" stroke-width="1"/><text class="av-type" x="696" y="1090" text-anchor="end">Data Object</text><text class="av-name" x="641" y="1103" text-anchor="middle"><tspan x="641" dy="0">Facility</tspan></text></a>
<a href="../elements/id-d835576123244cbf823b002689f93c51/" target="_top"><title>Terminology (Data Object)</title><rect x="413" y="1080" width="120" height="55" fill="#b5ffff" stroke="#648c8c" stroke-width="1"/><text class="av-type" x="528" y="1090" text-anchor="end">Data Object</text><text class="av-name" x="473" y="1103" text-anchor="middle"><tspan x="473" dy="0">Terminology</tspan></text></a>
<a href="../elements/id-2fa68d5b309d4464863acefb4973f14b/" target="_top"><title>Health Workforce Management (Capability)</title><rect x="185" y="564" width="120" height="55" rx="8" fill="#f5deaa" stroke="#877a5e" stroke-width="1"/><text class="av-type" x="300" y="574" text-anchor="end">Capability</text><text class="av-name" x="245" y="587" text-anchor="middle"><tspan x="245" dy="0">Health Workforce</tspan><tspan x="245" dy="13.75">Management</tspan></text></a>
<a href="../elements/id-10b2e5822bf6480aaf10d28e42e2cb69/" target="_top"><title>Privacy / Concent/ Trust (Capability)</title><rect x="604" y="564" width="120" height="55" rx="8" fill="#f5deaa" stroke="#877a5e" stroke-width="1"/><text class="av-type" x="719" y="574" text-anchor="end">Capability</text><text class="av-name" x="664" y="587" text-anchor="middle"><tspan x="664" dy="0">Privacy /</tspan><tspan x="664" dy="13.75">Concent/ Trust</tspan></text></a>
<a href="../elements/id-438335f9e552485399e2e7d6f9864b1c/" target="_top"><title>Client Identity Management (Capability)</title><rect x="329" y="564" width="120" height="55" rx="8" fill="#f5deaa" stroke="#877a5e" stroke-width="1"/><text class="av-type" x="444" y="574" text-anchor="end">Capability</text><text class="av-name" x="389" y="587" text-anchor="middle"><tspan x="389" dy="0">Client Identity</tspan><tspan x="389" dy="13.75">Management</tspan></text></a>
<a href="../elements/id-67c933eb87a140d7acda3fd84616f62e/" target="_top"><title>Interoperability Management (Capability)</title><rect x="738" y="564" width="120" height="55" rx="8" fill="#f5deaa" stroke="#877a5e" stroke-width="1"/><text class="av-type" x="853" y="574" text-anchor="end">Capability</text><text class="av-name" x="798" y="587" text-anchor="middle"><tspan x="798" dy="0">Interoperability</tspan><tspan x="798" dy="13.75">Management</tspan></text></a>
<a href="../elements/id-f7ca430bf2fd496094fb68da53f6eb00/" target="_top"><title>Analytics &amp; Business Intelligence (Capability)</title><rect x="1025" y="564" width="120" height="55" rx="8" fill="#f5deaa" stroke="#877a5e" stroke-width="1"/><text class="av-type" x="1140" y="574" text-anchor="end">Capability</text><text class="av-name" x="1085" y="587" text-anchor="middle"><tspan x="1085" dy="0">Analytics &amp;</tspan><tspan x="1085" dy="13.75">Business…</tspan></text></a>
<a href="../elements/id-d645f6d3e4bd4596aa959a9c817648ca/" target="_top"><title>Governance, Policy, and Legislation (Capability)</title><rect x="473" y="564" width="120" height="55" rx="8" fill="#f5deaa" stroke="#877a5e" stroke-width="1"/><text class="av-type" x="588" y="574" text-anchor="end">Capability</text><text class="av-name" x="533" y="587" text-anchor="middle"><tspan x="533" dy="0">Governance,</tspan><tspan x="533" dy="13.75">Policy, and…</tspan></text></a>
<a href="../elements/id-7ee19138449445078bee19c840d8fc7f/" target="_top"><title>Health Financing Management (Capability)</title><rect x="881" y="564" width="120" height="55" rx="8" fill="#f5deaa" stroke="#877a5e" stroke-width="1"/><text class="av-type" x="996" y="574" text-anchor="end">Capability</text><text class="av-name" x="941" y="587" text-anchor="middle"><tspan x="941" dy="0">Health Financing</tspan><tspan x="941" dy="13.75">Management</tspan></text></a>
<a href="../elements/id-237fa14306eb4c27911ba45307cdf26c/" target="_top"><title>Registry Management Service (Application Service)</title><rect x="185" y="732" width="120" height="55" rx="27.5" fill="#b5ffff" stroke="#648c8c" stroke-width="1"/><text class="av-type" x="286.6666666666667" y="742" text-anchor="end">Application Service</text><text class="av-name" x="245" y="755" text-anchor="middle"><tspan x="245" dy="0">Registry</tspan><tspan x="245" dy="13.75">Management…</tspan></text></a>
<a href="../elements/id-b01d1fd318e343b4a85c5c5f73b81fbb/" target="_top"><title>Identity Management Service (Application Service)</title><rect x="509" y="732" width="120" height="55" rx="27.5" fill="#b5ffff" stroke="#648c8c" stroke-width="1"/><text class="av-type" x="610.6666666666666" y="742" text-anchor="end">Application Service</text><text class="av-name" x="569" y="755" text-anchor="middle"><tspan x="569" dy="0">Identity</tspan><tspan x="569" dy="13.75">Management…</tspan></text></a>
<a href="../elements/id-61f9036cfc264e5ea18d7538e3f84e64/" target="_top"><title>Verification &amp; Validation Service (Application Service)</title><rect x="677" y="732" width="120" height="55" rx="27.5" fill="#b5ffff" stroke="#648c8c" stroke-width="1"/><text class="av-type" x="778.6666666666666" y="742" text-anchor="end">Application Service</text><text class="av-name" x="737" y="755" text-anchor="middle"><tspan x="737" dy="0">Verification &amp;</tspan><tspan x="737" dy="13.75">Validation…</tspan></text></a>
<a href="../elements/id-ec26cdbaf9554dbe870802b7291c607c/" target="_top"><title>Data Reporting &amp; Visualization Service (Application Service)</title><rect x="1025" y="732" width="120" height="55" rx="27.5" fill="#b5ffff" stroke="#648c8c" stroke-width="1"/><text class="av-type" x="1126.6666666666667" y="742" text-anchor="end">Application Service</text><text class="av-name" x="1085" y="755" text-anchor="middle"><tspan x="1085" dy="0">Data Reporting &amp;</tspan><tspan x="1085" dy="13.75">Visualization…</tspan></text></a>
<a href="../elements/id-a3b7a1d2792c400ba0398eb82affaf2d/" target="_top"><title>DPI-H: Facility Registry (Application Component)</title><rect x="521" y="996" width="120" height="55" fill="#b5ffff" stroke="#648c8c" stroke-width="1"/><text class="av-type" x="636" y="1006" text-anchor="end">Application Component</text><text class="av-name" x="581" y="1019" text-anchor="middle"><tspan x="581" dy="0">DPI-H: Facility</tspan><tspan x="581" dy="13.75">Registry</tspan></text></a>
<a href="../elements/id-e0946775ca30466fb63d4b10d0888dda/" target="_top"><title>Managing Health Workforce Record (Application Function)</title><rect x="185" y="816" width="120" height="55" rx="8" fill="#b5ffff" stroke="#648c8c" stroke-width="1"/><text class="av-type" x="300" y="826" text-anchor="end">Application Function</text><text class="av-name" x="245" y="839" text-anchor="middle"><tspan x="245" dy="0">Managing Health</tspan><tspan x="245" dy="13.75">Workforce Record</tspan></text></a>
<a href="../elements/id-b9a3aea594614cc4895cc200274bd4ca/" target="_top"><title>Managing License Status (Application Function)</title><rect x="677" y="816" width="120" height="55" rx="8" fill="#b5ffff" stroke="#648c8c" stroke-width="1"/><text class="av-type" x="792" y="826" text-anchor="end">Application Function</text><text class="av-name" x="737" y="839" text-anchor="middle"><tspan x="737" dy="0">Managing License</tspan><tspan x="737" dy="13.75">Status</tspan></text></a>
<a href="../elements/id-3b5a9c92e4604415b88f9a01f1c98d0b/" target="_top"><title>Generate Reports (Application Function)</title><rect x="1025" y="816" width="120" height="55" rx="8" fill="#b5ffff" stroke="#648c8c" stroke-width="1"/><text class="av-type" x="1140" y="826" text-anchor="end">Application Function</text><text class="av-name" x="1085" y="839" text-anchor="middle"><tspan x="1085" dy="0">Generate Reports</tspan></text></a>
<a href="../elements/id-e3cd9c7f49d64f8a90333590443b42ae/" target="_top"><title>Worker Profile Management (Business Function)</title><rect x="185" y="650" width="120" height="55" rx="8" fill="#ffffb5" stroke="#8c8c64" stroke-width="1"/><text class="av-type" x="300" y="660" text-anchor="end">Business Function</text><text class="av-name" x="245" y="673" text-anchor="middle"><tspan x="245" dy="0">Worker Profile</tspan><tspan x="245" dy="13.75">Management</tspan></text></a>
<a href="../elements/id-64a8d2b474424c658e23b3df6a2851b0/" target="_top"><title>Interoperability &amp; Integration Management (Business Function)</title><rect x="785" y="650" width="120" height="55" rx="8" fill="#ffffb5" stroke="#8c8c64" stroke-width="1"/><text class="av-type" x="900" y="660" text-anchor="end">Business Function</text><text class="av-name" x="845" y="673" text-anchor="middle"><tspan x="845" dy="0">Interoperability</tspan><tspan x="845" dy="13.75">&amp; Integration…</tspan></text></a>
<a href="../elements/id-af9f9c175e124b2888d55277329c2446/" target="_top"><title>Registry Maintenance and Data Quality (Business Function)</title><rect x="329" y="650" width="120" height="55" rx="8" fill="#ffffb5" stroke="#8c8c64" stroke-width="1"/><text class="av-type" x="444" y="660" text-anchor="end">Business Function</text><text class="av-name" x="389" y="673" text-anchor="middle"><tspan x="389" dy="0">Registry</tspan><tspan x="389" dy="13.75">Maintenance and…</tspan></text></a>
<a href="../elements/id-caaf5f03a0614fb5b62e219b21a76237/" target="_top"><title>Workforce Data Analytics (Business Function)</title><rect x="1025" y="650" width="120" height="55" rx="8" fill="#ffffb5" stroke="#8c8c64" stroke-width="1"/><text class="av-type" x="1140" y="660" text-anchor="end">Business Function</text><text class="av-name" x="1085" y="673" text-anchor="middle"><tspan x="1085" dy="0">Workforce Data</tspan><tspan x="1085" dy="13.75">Analytics</tspan></text></a>
<a href="../elements/id-efc0ff47afb74873aa5dd4a251268a47/" target="_top"><title>Access Control adn Consent Mgmt (Business Function)</title><rect x="619" y="650" width="120" height="55" rx="8" fill="#ffffb5" stroke="#8c8c64" stroke-width="1"/><text class="av-type" x="734" y="660" text-anchor="end">Business Function</text><text class="av-name" x="679" y="673" text-anchor="middle"><tspan x="679" dy="0">Access Control</tspan><tspan x="679" dy="13.75">adn Consent Mgmt</tspan></text></a>
<a href="../elements/id-3f74221e475e4cdd905922d72a288329/" target="_top"><title>Worker Registration &amp; Onboarding (Business Function)</title><rect x="473" y="650" width="120" height="55" rx="8" fill="#ffffb5" stroke="#8c8c64" stroke-width="1"/><text class="av-type" x="588" y="660" text-anchor="end">Business Function</text><text class="av-name" x="533" y="673" text-anchor="middle"><tspan x="533" dy="0">Worker</tspan><tspan x="533" dy="13.75">Registration &amp;…</tspan></text></a>
<a href="../elements/id-2507dbae912543df9be0f427dd00e60d/" target="_top"><title>Timely and Accurate Payments by adopting reliable digital payroll systems (Goal)</title><polygon points="148,24 1204,24 1214,34 1214,69 1204,79 148,79 138,69 138,34" fill="#ccccff" stroke="#70708c" stroke-width="1"/><text class="av-type" x="1205" y="34" text-anchor="end">Goal</text><text class="av-name" x="676" y="47" text-anchor="middle"><tspan x="676" dy="0">Timely and Accurate Payments by adopting reliable digital payroll systems</tspan></text></a>
<a href="../relationships/id-a6de1dbc121740e5959bb135d80fda43/" target="_top"><title>Association</title><path d="M243 199 L243 240" fill="none" stroke="#333" stroke-width="1.2"/><path d="M243 199 L243 240" fill="none" stroke="transparent" stroke-width="8"/></a>
<a href="../relationships/id-7f78639a4d594e91a0e79a82fe623269/" target="_top"><title>Influence</title><path d="M303 287.4 L486.1 348" fill="none" stroke="#333" stroke-width="1.2" stroke-dasharray="6 4" marker-end="url(#arrow-open)"/><path d="M303 287.4 L486.1 348" fill="none" stroke="transparent" stroke-width="8"/></a>
<a href="../relationships/id-3056c6d6d40b4901bbfc967a7781cc7c/" target="_top"><title>Association</title><path d="M782.4 481 L901.5 564" fill="none" stroke="#333" stroke-width="1.2"/><path d="M782.4 481 L901.5 564" fill="none" stroke="transparent" stroke-width="8"/></a>
<a href="../relationships/id-958f607e8e0741d6bbe300d49382ab8b/" target="_top"><title>Association</title><path d="M645.5 435.5 L687 414.5" fill="none" stroke="#333" stroke-width="1.2"/><path d="M645.5 435.5 L687 414.5" fill="none" stroke="transparent" stroke-width="8"/></a>
<a href="../relationships/id-a119cc92903046e3b34cc5b7e1fb5f3d/" target="_top"><title>Association</title><path d="M381.5 435.5 L496 427.6" fill="none" stroke="#333" stroke-width="1.2"/><path d="M381.5 435.5 L496 427.6" fill="none" stroke="transparent" stroke-width="8"/></a>
<a href="../relationships/id-c9dc8f3f8a0d474a916b31c15bed9e6c/" target="_top"><title>Composition</title><path d="M957 435.5 L807 423.8" fill="none" stroke="#333" stroke-width="1.2" marker-start="url(#diamond-filled)"/><path d="M957 435.5 L807 423.8" fill="none" stroke="transparent" stroke-width="8"/></a>
<a href="../relationships/id-32b2930a7d004a279d563020a33ae4dd/" target="_top"><title>Association</title><path d="M687 414.5 L645.5 435.5" fill="none" stroke="#333" stroke-width="1.2"/><path d="M687 414.5 L645.5 435.5" fill="none" stroke="transparent" stroke-width="8"/></a>
<a href="../relationships/id-73b49354050c4a41b2c946dc18354fc2/" target="_top"><title>Association</title><path d="M496 427.6 L381.5 435.5" fill="none" stroke="#333" stroke-width="1.2"/><path d="M496 427.6 L381.5 435.5" fill="none" stroke="transparent" stroke-width="8"/></a>
<a href="../relationships/id-1ef83135fd6f4080b72ea480aedc73c5/" target="_top"><title>Influence</title><path d="M807 423.8 L957 435.5" fill="none" stroke="#333" stroke-width="1.2" stroke-dasharray="6 4" marker-end="url(#arrow-open)"/><path d="M807 423.8 L957 435.5" fill="none" stroke="transparent" stroke-width="8"/></a>
<a href="../relationships/id-63c282851af841b6983cf35c9d20234d/" target="_top"><title>Association</title><path d="M417.9 199 L428.1 240" fill="none" stroke="#333" stroke-width="1.2"/><path d="M417.9 199 L428.1 240" fill="none" stroke="transparent" stroke-width="8"/></a>
<a href="../relationships/id-7a39ad1f2daf4949ab1ddd7c969858c0/" target="_top"><title>Influence</title><path d="M482.1 295 L573 348" fill="none" stroke="#333" stroke-width="1.2" stroke-dasharray="6 4" marker-end="url(#arrow-open)"/><path d="M482.1 295 L573 348" fill="none" stroke="transparent" stroke-width="8"/></a>
<a href="../relationships/id-df6ff62ace4945829f17fb29fa4a57de/" target="_top"><title>Association</title><path d="M749 199 L734 240" fill="none" stroke="#333" stroke-width="1.2"/><path d="M749 199 L734 240" fill="none" stroke="transparent" stroke-width="8"/></a>
<a href="../relationships/id-353465dfa868411e8f2a3baa6e60f210/" target="_top"><title>Influence</title><path d="M717.1 295 L703.7 348" fill="none" stroke="#333" stroke-width="1.2" stroke-dasharray="6 4" marker-end="url(#arrow-open)"/><path d="M717.1 295 L703.7 348" fill="none" stroke="transparent" stroke-width="8"/></a>
<a href="../relationships/id-22ba0f6c6a9a45c391accaa792c45abb/" target="_top"><title>Association</title><path d="M918.7 199 L906.3 240" fill="none" stroke="#333" stroke-width="1.2"/><path d="M918.7 199 L906.3 240" fill="none" stroke="transparent" stroke-width="8"/></a>
<a href="../relationships/id-952f31d22996423c94c9d2b8c86f9bf8/" target="_top"><title>Association</title><path d="M868.8 199 L782.2 240" fill="none" stroke="#333" stroke-width="1.2"/><path d="M868.8 199 L782.2 240" fill="none" stroke="transparent" stroke-width="8"/></a>
<a href="../relationships/id-cfaec018e9394ba39aa7d50e7da0e411/" target="_top"><title>Influence</title><path d="M858.5 295 L782.5 348" fill="none" stroke="#333" stroke-width="1.2" stroke-dasharray="6 4" marker-end="url(#arrow-open)"/><path d="M858.5 295 L782.5 348" fill="none" stroke="transparent" stroke-width="8"/></a>
<a href="../relationships/id-c3f08884ae8a4adda1a8360ffafca170/" target="_top"><title>Association</title><path d="M1089.9 199 L1100.1 240" fill="none" stroke="#333" stroke-width="1.2"/><path d="M1089.9 199 L1100.1 240" fill="none" stroke="transparent" stroke-width="8"/></a>
<a href="../relationships/id-b1c7a50d8eb1466a813d8a1a2ddc659a/" target="_top"><title>Influence</title><path d="M1082.4 295 L978.9 411" fill="none" stroke="#333" stroke-width="1.2" stroke-dasharray="6 4" marker-end="url(#arrow-open)"/><path d="M1082.4 295 L978.9 411" fill="none" stroke="transparent" stroke-width="8"/></a>
<a href="../relationships/id-f1acde0526b0468e9cc6a42093d86625/" target="_top"><title>Association</title><path d="M542.7 199 L478.3 240" fill="none" stroke="#333" stroke-width="1.2"/><path d="M542.7 199 L478.3 240" fill="none" stroke="transparent" stroke-width="8"/></a>
<a href="../relationships/id-ea8db989b37644a7aa1bdf51bbcffebe/" target="_top"><title>Access</title><path d="M383.3 967 L310.7 1080" fill="none" stroke="#333" stroke-width="1.2" stroke-dasharray="2 3" marker-end="url(#arrow-small)"/><path d="M383.3 967 L310.7 1080" fill="none" stroke="transparent" stroke-width="8"/></a>
<a href="../relationships/id-455eeff261fc40c9a01349a09cb73622/" target="_top"><title>Access</title><path d="M412.8 967 L461.2 1080" fill="none" stroke="#333" stroke-width="1.2" stroke-dasharray="2 3" marker-end="url(#arrow-small)"/><path d="M412.8 967 L461.2 1080" fill="none" stroke="transparent" stroke-width="8"/></a>
<a href="../relationships/id-2c016cb0c5ea4d5d8d7076a3885e7a35/" target="_top"><title>Assignment</title><path d="M461 922.4 L677 860.6" fill="none" stroke="#333" stroke-width="1.2" marker-start="url(#dot)" marker-end="url(#arrow-filled)"/><path d="M461 922.4 L677 860.6" fill="none" stroke="transparent" stroke-width="8"/></a>
<a href="../relationships/id-ee802371fdb643a0a62059da09fc471b/" target="_top"><title>Assignment</title><path d="M356.3 912 L289.7 871" fill="none" stroke="#333" stroke-width="1.2" marker-start="url(#dot)" marker-end="url(#arrow-filled)"/><path d="M356.3 912 L289.7 871" fill="none" stroke="transparent" stroke-width="8"/></a>
<a href="../relationships/id-b5054aceb8394f51af96091d22b98b6d/" target="_top"><title>Flow</title><path d="M785.4 996 L760.6 967" fill="none" stroke="#333" stroke-width="1.2" stroke-dasharray="8 4" marker-end="url(#arrow-filled)"/><path d="M785.4 996 L760.6 967" fill="none" stroke="transparent" stroke-width="8"/></a>
<a href="../relationships/id-45c6ca2d19804baf910b6d1aa395a3be/" target="_top"><title>Assignment</title><path d="M1085 912 L1085 871" fill="none" stroke="#333" stroke-width="1.2" marker-start="url(#dot)" marker-end="url(#arrow-filled)"/><path d="M1085 912 L1085 871" fill="none" stroke="transparent" stroke-width="8"/></a>
<a href="../relationships/id-9540ab8bdf4945278fdd25eb3e37b7f3/" target="_top"><title>Flow</title><path d="M685.9 967 L632.1 996" fill="none" stroke="#333" stroke-width="1.2" stroke-dasharray="8 4" marker-end="url(#arrow-filled)"/><path d="M685.9 967 L632.1 996" fill="none" stroke="transparent" stroke-width="8"/></a>
<a href="../relationships/id-9aef44a6f9bb4910802896bc2fe65497/" target="_top"><title>Flow</title><path d="M797 939.5 L1025 939.5" fill="none" stroke="#333" stroke-width="1.2" stroke-dasharray="8 4" marker-end="url(#arrow-filled)"/><path d="M797 939.5 L1025 939.5" fill="none" stroke="transparent" stroke-width="8"/></a>
<a href="../relationships/id-ac9d54a038e14c82999b13d9390525b4/" target="_top"><title>Flow</title><path d="M760.6 967 L785.4 996" fill="none" stroke="#333" stroke-width="1.2" stroke-dasharray="8 4" marker-end="url(#arrow-filled)"/><path d="M760.6 967 L785.4 996" fill="none" stroke="transparent" stroke-width="8"/></a>
<a href="../relationships/id-351fc35618c74cf0bf599080478fce22/" target="_top"><title>Realization</title><path d="M305 567.5 L520.9 481" fill="none" stroke="#333" stroke-width="1.2" stroke-dasharray="6 4" marker-end="url(#triangle-hollow)"/><path d="M305 567.5 L520.9 481" fill="none" stroke="transparent" stroke-width="8"/></a>
<a href="../relationships/id-edf2c06ab4214eb9a4fbff6a525d6c98/" target="_top"><title>Realization</title><path d="M667.6 564 L678.4 481" fill="none" stroke="#333" stroke-width="1.2" stroke-dasharray="6 4" marker-end="url(#triangle-hollow)"/><path d="M667.6 564 L678.4 481" fill="none" stroke="transparent" stroke-width="8"/></a>
<a href="../relationships/id-8828b57951704891b6dbfc2c24814282/" target="_top"><title>Realization</title><path d="M387.7 564 L382.8 463" fill="none" stroke="#333" stroke-width="1.2" stroke-dasharray="6 4" marker-end="url(#triangle-hollow)"/><path d="M387.7 564 L382.8 463" fill="none" stroke="transparent" stroke-width="8"/></a>
<a href="../relationships/id-dbd962c6b23244f4b4b5549abb3cf3fb/" target="_top"><title>Realization</title><path d="M771.1 564 L672.4 463" fill="none" stroke="#333" stroke-width="1.2" stroke-dasharray="6 4" marker-end="url(#triangle-hollow)"/><path d="M771.1 564 L672.4 463" fill="none" stroke="transparent" stroke-width="8"/></a>
<a href="../relationships/id-7b0f32bff65549f6a4653e2ebda43e25/" target="_top"><title>Realization</title><path d="M1062.4 564 L977.1 460" fill="none" stroke="#333" stroke-width="1.2" stroke-dasharray="6 4" marker-end="url(#triangle-hollow)"/><path d="M1062.4 564 L977.1 460" fill="none" stroke="transparent" stroke-width="8"/></a>
<a href="../relationships/id-43f63c2c351f4792862a71329ec3e10b/" target="_top"><title>Realization</title><path d="M556.9 564 L629.1 481" fill="none" stroke="#333" stroke-width="1.2" stroke-dasharray="6 4" marker-end="url(#triangle-hollow)"/><path d="M556.9 564 L629.1 481" fill="none" stroke="transparent" stroke-width="8"/></a>
<a href="../relationships/id-c5a28ccb79054caeacf7d7d0d269da05/" target="_top"><title>Access</title><path d="M600.6 1051 L621.4 1080" fill="none" stroke="#333" stroke-width="1.2" stroke-dasharray="2 3" marker-end="url(#arrow-small)"/><path d="M600.6 1051 L621.4 1080" fill="none" stroke="transparent" stroke-width="8"/></a>
<a href="../relationships/id-21689ad1a73b4ff5b7daad7c6f5b0440/" target="_top"><title>Access</title><path d="M545.6 1051 L508.4 1080" fill="none" stroke="#333" stroke-width="1.2" stroke-dasharray="2 3" marker-end="url(#arrow-small)"/><path d="M545.6 1051 L508.4 1080" fill="none" stroke="transparent" stroke-width="8"/></a>
<a href="../relationships/id-e601aa19b7d5495384703b338a8b48e5/" target="_top"><title>Flow</title><path d="M619.3 996 L627 990.5 L677.7 967" fill="none" stroke="#333" stroke-width="1.2" stroke-dasharray="8 4" marker-end="url(#arrow-filled)"/><path d="M619.3 996 L627 990.5 L677.7 967" fill="none" stroke="transparent" stroke-width="8"/></a>
<a href="../relationships/id-e61b4a16fd3f407bb74c5b8398510a27/" target="_top"><title>Realization</title><path d="M245 650 L245 619" fill="none" stroke="#333" stroke-width="1.2" stroke-dasharray="6 4" marker-end="url(#triangle-hollow)"/><path d="M245 650 L245 619" fill="none" stroke="transparent" stroke-width="8"/></a>
<a href="../relationships/id-0ffe36cc0b894b1981295a139c9481b8/" target="_top"><title>Serving</title><path d="M245 705 L245 732" fill="none" stroke="#333" stroke-width="1.2" marker-end="url(#arrow-open)"/><path d="M245 705 L245 732" fill="none" stroke="transparent" stroke-width="8"/></a>
<a href="../relationships/id-c44519f4079f4b33a5238b1eebb6b8d0/" target="_top"><title>Realization</title><path d="M830 650 L813 619" fill="none" stroke="#333" stroke-width="1.2" stroke-dasharray="6 4" marker-end="url(#triangle-hollow)"/><path d="M830 650 L813 619" fill="none" stroke="transparent" stroke-width="8"/></a>
<a href="../relationships/id-121ef30911ac40488e6c63173cbc1012/" target="_top"><title>Serving</title><path d="M808.8 705 L773.2 732" fill="none" stroke="#333" stroke-width="1.2" marker-end="url(#arrow-open)"/><path d="M808.8 705 L773.2 732" fill="none" stroke="transparent" stroke-width="8"/></a>
<a href="../relationships/id-6bd234e780b44d50bf17d86ff26575f3/" target="_top"><title>Serving</title><path d="M340.7 705 L293.3 732" fill="none" stroke="#333" stroke-width="1.2" marker-end="url(#arrow-open)"/><path d="M340.7 705 L293.3 732" fill="none" stroke="transparent" stroke-width="8"/></a>
<a href="../relationships/id-0eab06eea3904f7d9b575d126c68e07d/" target="_top"><title>Realization</title><path d="M343 650 L291 619" fill="none" stroke="#333" stroke-width="1.2" stroke-dasharray="6 4" marker-end="url(#triangle-hollow)"/><path d="M343 650 L291 619" fill="none" stroke="transparent" stroke-width="8"/></a>
<a href="../relationships/id-b94c70fcb7eb4adcb4193a438c90220d/" target="_top"><title>Realization</title><path d="M1085 650 L1085 619" fill="none" stroke="#333" stroke-width="1.2" stroke-dasharray="6 4" marker-end="url(#triangle-hollow)"/><path d="M1085 650 L1085 619" fill="none" stroke="transparent" stroke-width="8"/></a>
<a href="../relationships/id-544b09cf08f846998205fd481c649a6a/" target="_top"><title>Serving</title><path d="M1085 705 L1085 732" fill="none" stroke="#333" stroke-width="1.2" marker-end="url(#arrow-open)"/><path d="M1085 705 L1085 732" fill="none" stroke="transparent" stroke-width="8"/></a>
<a href="../relationships/id-63efe27fa9834c48b594af53f5e1f32a/" target="_top"><title>Realization</title><path d="M674.2 650 L668.8 619" fill="none" stroke="#333" stroke-width="1.2" stroke-dasharray="6 4" marker-end="url(#triangle-hollow)"/><path d="M674.2 650 L668.8 619" fill="none" stroke="transparent" stroke-width="8"/></a>
<a href="../relationships/id-e24d8c1cee81428f9c8eb5c59e563899/" target="_top"><title>Serving</title><path d="M698.5 705 L717.5 732" fill="none" stroke="#333" stroke-width="1.2" marker-end="url(#arrow-open)"/><path d="M698.5 705 L717.5 732" fill="none" stroke="transparent" stroke-width="8"/></a>
<a href="../relationships/id-45cec2d299034e65a917425a3f24ba4b/" target="_top"><title>Serving</title><path d="M642.1 705 L605.9 732" fill="none" stroke="#333" stroke-width="1.2" marker-end="url(#arrow-open)"/><path d="M642.1 705 L605.9 732" fill="none" stroke="transparent" stroke-width="8"/></a>
<a href="../relationships/id-c6b90d8b52524f7bb5c9fe26a777f0ff/" target="_top"><title>Realization</title><path d="M487 650 L435 619" fill="none" stroke="#333" stroke-width="1.2" stroke-dasharray="6 4" marker-end="url(#triangle-hollow)"/><path d="M487 650 L435 619" fill="none" stroke="transparent" stroke-width="8"/></a></svg>
