<svg xmlns="http://www.w3.org/2000/svg" viewBox="57 79 1036 712" width="1036" height="712" role="img" aria-labelledby="av-title"><title id="av-title">High Level - Motivational Viewpoint — WHO Models</title><style>
.av-name{font:600 11px system-ui,-apple-system,"Segoe UI",sans-serif;fill:#111}
.av-type{font:italic 8px system-ui,sans-serif;fill:#555}
.av-group{font:600 11px system-ui,sans-serif;fill:#333}
.av-note{font:10px system-ui,sans-serif;fill:#222}
.av-rel{font:9px system-ui,sans-serif;fill:#333;paint-order:stroke;stroke:#fff;stroke-width:3px}
a:hover rect,a:hover polygon,a:focus rect,a:focus polygon{stroke:#06c;stroke-width:2.5}
</style><defs>
<marker id="arrow-open" viewBox="0 0 12 12" refX="11" refY="6" markerWidth="11" markerHeight="11" orient="auto-start-reverse" markerUnits="userSpaceOnUse"><path d="M1 1 L11 6 L1 11" fill="none" stroke="#333" stroke-width="1.3"/></marker>
<marker id="arrow-filled" viewBox="0 0 12 12" refX="11" refY="6" markerWidth="11" markerHeight="11" orient="auto-start-reverse" markerUnits="userSpaceOnUse"><path d="M1 1 L11 6 L1 11 Z" fill="#333"/></marker>
<marker id="arrow-small" viewBox="0 0 10 10" refX="9" refY="5" markerWidth="8" markerHeight="8" orient="auto-start-reverse" markerUnits="userSpaceOnUse"><path d="M1 1 L9 5 L1 9" fill="none" stroke="#333" stroke-width="1.2"/></marker>
<marker id="triangle-hollow" viewBox="0 0 14 14" refX="13" refY="7" markerWidth="13" markerHeight="13" orient="auto-start-reverse" markerUnits="userSpaceOnUse"><path d="M1 1 L13 7 L1 13 Z" fill="#fff" stroke="#333" stroke-width="1.2"/></marker>
<marker id="diamond-filled" viewBox="0 0 16 10" refX="1" refY="5" markerWidth="16" markerHeight="10" orient="auto-start-reverse" markerUnits="userSpaceOnUse"><path d="M1 5 L8 1 L15 5 L8 9 Z" fill="#333"/></marker>
<marker id="diamond-hollow" viewBox="0 0 16 10" refX="1" refY="5" markerWidth="16" markerHeight="10" orient="auto-start-reverse" markerUnits="userSpaceOnUse"><path d="M1 5 L8 1 L15 5 L8 9 Z" fill="#fff" stroke="#333" stroke-width="1.2"/></marker>
<marker id="dot" viewBox="0 0 8 8" refX="4" refY="4" markerWidth="7" markerHeight="7" orient="auto" markerUnits="userSpaceOnUse"><circle cx="4" cy="4" r="3.2" fill="#333"/></marker>
<pattern id="missing" width="8" height="8" patternUnits="userSpaceOnUse" patternTransform="rotate(45)"><rect width="8" height="8" fill="#fff"/><line x1="0" y1="0" x2="0" y2="8" stroke="#d33" stroke-width="2"/></pattern>
</defs><rect x="57" y="79" width="1036" height="712" fill="#fff"/><g class="av-g"><rect x="77" y="99" width="996" height="672" fill="#f2f2f2" fill-opacity=".55" stroke="#888"/><rect x="77" y="99" width="996" height="19.75" fill="#f2f2f2" stroke="#888"/><text class="av-group" x="83" y="113">TPHR Motivational Viewpoint</text></g>
<a href="../elements/id-555b5ff2e40a471c8bc49cc680ce2827/" target="_top"><title>Citizen/Patient (Stakeholder)</title><polygon points="123,135 236,135 246,145 246,180 236,190 123,190 113,180 113,145" fill="#ccccff" stroke="#70708c" stroke-width="1"/><text class="av-type" x="237" y="145" text-anchor="end">Stakeholder</text><text class="av-name" x="179.5" y="158" text-anchor="middle"><tspan x="179.5" dy="0">Citizen/Patient</tspan></text></a>
<a href="../elements/id-1512634746314b06bceb3aa345d34414/" target="_top"><title>Government/Regulators (Stakeholder)</title><polygon points="746,135 859,135 869,145 869,180 859,190 746,190 736,180 736,145" fill="#ccccff" stroke="#70708c" stroke-width="1"/><text class="av-type" x="860" y="145" text-anchor="end">Stakeholder</text><text class="av-name" x="802.5" y="158" text-anchor="middle"><tspan x="802.5" dy="0">Government/Regulat…</tspan></text></a>
<a href="../elements/id-a85f0772298f46bcb1e5df92037b3822/" target="_top"><title>Health Workers (Stakeholder)</title><polygon points="279,135 392,135 402,145 402,180 392,190 279,190 269,180 269,145" fill="#ccccff" stroke="#70708c" stroke-width="1"/><text class="av-type" x="393" y="145" text-anchor="end">Stakeholder</text><text class="av-name" x="335.5" y="158" text-anchor="middle"><tspan x="335.5" dy="0">Health Workers</tspan></text></a>
<a href="../elements/id-a7d4b0c937c44163859b58e95b17140a/" target="_top"><title>Healthcare Facilities (Stakeholder)</title><polygon points="435,135 548,135 558,145 558,180 548,190 435,190 425,180 425,145" fill="#ccccff" stroke="#70708c" stroke-width="1"/><text class="av-type" x="549" y="145" text-anchor="end">Stakeholder</text><text class="av-name" x="491.5" y="158" text-anchor="middle"><tspan x="491.5" dy="0">Healthcare</tspan><tspan x="491.5" dy="13.75">Facilities</tspan></text></a>
<a href="../elements/id-fef13d6e0749406590652242db76b825/" target="_top"><title>Payers/insurers (Stakeholder)</title><polygon points="591,135 704,135 714,145 714,180 704,190 591,190 581,180 581,145" fill="#ccccff" stroke="#70708c" stroke-width="1"/><text class="av-type" x="705" y="145" text-anchor="end">Stakeholder</text><text class="av-name" x="647.5" y="158" text-anchor="middle"><tspan x="647.5" dy="0">Payers/insurers</tspan></text></a>
<a href="../elements/id-71c6318f8f7845f584612531895b12f6/" target="_top"><title>Public Health Authorities (Stakeholder)</title><polygon points="903,135 1016,135 1026,145 1026,180 1016,190 903,190 893,180 893,145" fill="#ccccff" stroke="#70708c" stroke-width="1"/><text class="av-type" x="1017" y="145" text-anchor="end">Stakeholder</text><text class="av-name" x="959.5" y="158" text-anchor="middle"><tspan x="959.5" dy="0">Public Health</tspan><tspan x="959.5" dy="13.75">Authorities</tspan></text></a>
<a href="../elements/id-9ebda1000ca841b4816fd2de8066d3ce/" target="_top"><title>Control over data, easy access, secure sharing, trust (Value)</title><polygon points="118,231 242,231 252,241 252,293 242,303 118,303 108,293 108,241" fill="#ccccff" stroke="#70708c" stroke-width="1"/><text class="av-type" x="243" y="241" text-anchor="end">Value</text><text class="av-name" x="180" y="254" text-anchor="middle"><tspan x="180" dy="0">Control over data,</tspan><tspan x="180" dy="13.75">easy access, secure</tspan><tspan x="180" dy="13.75">sharing, trust</tspan></text></a>
<a href="../elements/id-5ad6ded151be45408ff129e3618b7c2e/" target="_top"><title>Interoperable patient records for continuity of care. (Value)</title><polygon points="430,231 554,231 564,241 564,293 554,303 430,303 420,293 420,241" fill="#ccccff" stroke="#70708c" stroke-width="1"/><text class="av-type" x="555" y="241" text-anchor="end">Value</text><text class="av-name" x="492" y="254" text-anchor="middle"><tspan x="492" dy="0">Interoperable patient</tspan><tspan x="492" dy="13.75">records for</tspan><tspan x="492" dy="13.75">continuity of care.</tspan></text></a>
<a href="../elements/id-f2cafc3a10744f96afe459a81a14dce9/" target="_top"><title>Reliable, verifiable data for claims and fraud prevention. (Value)</title><polygon points="586,231 710,231 720,241 720,293 710,303 586,303 576,293 576,241" fill="#ccccff" stroke="#70708c" stroke-width="1"/><text class="av-type" x="711" y="241" text-anchor="end">Value</text><text class="av-name" x="648" y="254" text-anchor="middle"><tspan x="648" dy="0">Reliable, verifiable</tspan><tspan x="648" dy="13.75">data for claims and</tspan><tspan x="648" dy="13.75">fraud prevention.</tspan></text></a>
<a href="../elements/id-f008bf20b8c44ec3acb6767ebd1be08e/" target="_top"><title>Trustworthy health data ecosystem and governance. (Value)</title><polygon points="741,231 865,231 875,241 875,293 865,303 741,303 731,293 731,241" fill="#ccccff" stroke="#70708c" stroke-width="1"/><text class="av-type" x="866" y="241" text-anchor="end">Value</text><text class="av-name" x="803" y="254" text-anchor="middle"><tspan x="803" dy="0">Trustworthy health</tspan><tspan x="803" dy="13.75">data ecosystem and</tspan><tspan x="803" dy="13.75">governance.</tspan></text></a>
<a href="../elements/id-40092ac2a4ae401ba0da2f1b340f1315/" target="_top"><title>Aggregated, reliable data for planning and surveillance (Value)</title><polygon points="897,231 1021,231 1031,241 1031,293 1021,303 897,303 887,293 887,241" fill="#ccccff" stroke="#70708c" stroke-width="1"/><text class="av-type" x="1022" y="241" text-anchor="end">Value</text><text class="av-name" x="959" y="254" text-anchor="middle"><tspan x="959" dy="0">Aggregated, reliable</tspan><tspan x="959" dy="13.75">data for planning and</tspan><tspan x="959" dy="13.75">surveillance</tspan></text></a>
<a href="../elements/id-2465a12876f748ab8266df833f63ccb5/" target="_top"><title>TPHR Strategic Drivers (Grouping)</title><rect x="113" y="351" width="918" height="109" fill="#ffffff" stroke="#8c8c8c" stroke-width="1"/><text class="av-type" x="1026" y="361" text-anchor="end">Grouping</text><text class="av-name" x="572" y="374" text-anchor="middle"><tspan x="572" dy="0">TPHR Strategic Drivers</tspan></text></a>
<a href="../elements/id-bc0c833ae40e49f79ca26c4674c53c61/" target="_top"><title>Right to health and data ownership (Driver)</title><polygon points="135,387 315,387 325,397 325,432 315,442 135,442 125,432 125,397" fill="#ccccff" stroke="#70708c" stroke-width="1"/><text class="av-type" x="316" y="397" text-anchor="end">Driver</text><text class="av-name" x="225" y="410" text-anchor="middle"><tspan x="225" dy="0">Right to health and data</tspan><tspan x="225" dy="13.75">ownership</tspan></text></a>
<a href="../elements/id-ff04fea360804ba792e4a77c1b6bf9dc/" target="_top"><title>Trust in digital health systems (Driver)</title><polygon points="363,387 543,387 553,397 553,432 543,442 363,442 353,432 353,397" fill="#ccccff" stroke="#70708c" stroke-width="1"/><text class="av-type" x="544" y="397" text-anchor="end">Driver</text><text class="av-name" x="453" y="410" text-anchor="middle"><tspan x="453" dy="0">Trust in digital health</tspan><tspan x="453" dy="13.75">systems</tspan></text></a>
<a href="../elements/id-44f321980e3846dc889149f26b575342/" target="_top"><title>National/global push for interoperable DPI for Health (Driver)</title><polygon points="591,387 771,387 781,397 781,432 771,442 591,442 581,432 581,397" fill="#ccccff" stroke="#70708c" stroke-width="1"/><text class="av-type" x="772" y="397" text-anchor="end">Driver</text><text class="av-name" x="681" y="410" text-anchor="middle"><tspan x="681" dy="0">National/global push for</tspan><tspan x="681" dy="13.75">interoperable DPI for Health</tspan></text></a>
<a href="../elements/id-8f94100c3f134710a5d353459c466171/" target="_top"><title>Rising demand for secure, portable, and verifiable health data (Driver)</title><polygon points="819,387 999,387 1009,397 1009,432 999,442 819,442 809,432 809,397" fill="#ccccff" stroke="#70708c" stroke-width="1"/><text class="av-type" x="1000" y="397" text-anchor="end">Driver</text><text class="av-name" x="909" y="410" text-anchor="middle"><tspan x="909" dy="0">Rising demand for secure,</tspan><tspan x="909" dy="13.75">portable, and verifiable…</tspan></text></a>
<a href="../elements/id-a04d4b90bf3948c28f7e898068a9b65f/" target="_top"><title>Verified patient records at point of care (Value)</title><polygon points="274,231 398,231 408,241 408,293 398,303 274,303 264,293 264,241" fill="#ccccff" stroke="#70708c" stroke-width="1"/><text class="av-type" x="399" y="241" text-anchor="end">Value</text><text class="av-name" x="336" y="254" text-anchor="middle"><tspan x="336" dy="0">Verified patient</tspan><tspan x="336" dy="13.75">records at point of</tspan><tspan x="336" dy="13.75">care</tspan></text></a>
<a href="../elements/id-c3478258eae74a10a6bc179be9b02451/" target="_top"><title>TPHR Goals (Grouping)</title><rect x="113" y="507" width="917" height="228" fill="#ffffff" stroke="#8c8c8c" stroke-width="1"/><text class="av-type" x="1025" y="517" text-anchor="end">Grouping</text><text class="av-name" x="571.5" y="530" text-anchor="middle"><tspan x="571.5" dy="0">TPHR Goals</tspan></text></a>
<a href="../elements/id-dcad4ce831f245069a1d55c59a88ccc0/" target="_top"><title>Develop a secure and universally accessible system for issuing verifiable digital health records to individuals for their utilization as they seek care, following appropriate safeguards for privacy, security and consent (Goal)</title><polygon points="135,543 1003,543 1013,553 1013,594 1003,604 135,604 125,594 125,553" fill="#ccccff" stroke="#70708c" stroke-width="1"/><text class="av-type" x="1004" y="553" text-anchor="end">Goal</text><text class="av-name" x="569" y="566" text-anchor="middle"><tspan x="569" dy="0">Develop a secure and universally accessible system for issuing verifiable digital health records to individuals for their utilization as they</tspan><tspan x="569" dy="13.75">seek care, following appropriate safeguards for privacy, security and consent</tspan></text></a>
<a href="../elements/id-bfbf34566cca4f0bafe027b735be4c4b/" target="_top"><title>Support interoperability across providers, facilities, and jurisdictions (Goal)</title><polygon points="819,651 1004,651 1014,661 1014,702 1004,712 819,712 809,702 809,661" fill="#ccccff" stroke="#70708c" stroke-width="1"/><text class="av-type" x="1005" y="661" text-anchor="end">Goal</text><text class="av-name" x="911.5" y="674" text-anchor="middle"><tspan x="911.5" dy="0">Support interoperability across</tspan><tspan x="911.5" dy="13.75">providers, facilities, and</tspan><tspan x="911.5" dy="13.75">jurisdictions</tspan></text></a>
<a href="../elements/id-d00b94489c8343bbbf455e45fd8e2d95/" target="_top"><title>Ensure trust, security, and privacy in all transactions (Goal)</title><polygon points="591,651 776,651 786,661 786,702 776,712 591,712 581,702 581,661" fill="#ccccff" stroke="#70708c" stroke-width="1"/><text class="av-type" x="777" y="661" text-anchor="end">Goal</text><text class="av-name" x="683.5" y="674" text-anchor="middle"><tspan x="683.5" dy="0">Ensure trust, security, and</tspan><tspan x="683.5" dy="13.75">privacy in all transactions</tspan></text></a>
<a href="../elements/id-c8366109ac024732be5eda39db68c8cf/" target="_top"><title>Enable patient control and consent-based sharing of health information (Goal)</title><polygon points="363,651 545,651 555,661 555,702 545,712 363,712 353,702 353,661" fill="#ccccff" stroke="#70708c" stroke-width="1"/><text class="av-type" x="546" y="661" text-anchor="end">Goal</text><text class="av-name" x="454" y="674" text-anchor="middle"><tspan x="454" dy="0">Enable patient control and</tspan><tspan x="454" dy="13.75">consent-based sharing of health</tspan><tspan x="454" dy="13.75">information</tspan></text></a>
<a href="../elements/id-cdd56e5a92a3479eb902c7d2ed9a2b12/" target="_top"><title>Establish a secure, universally accessible, verifiable health record for every individual (Goal)</title><polygon points="135,651 320,651 330,661 330,702 320,712 135,712 125,702 125,661" fill="#ccccff" stroke="#70708c" stroke-width="1"/><text class="av-type" x="321" y="661" text-anchor="end">Goal</text><text class="av-name" x="227.5" y="674" text-anchor="middle"><tspan x="227.5" dy="0">Establish a secure, universally</tspan><tspan x="227.5" dy="13.75">accessible, verifiable health</tspan><tspan x="227.5" dy="13.75">record for every individual</tspan></text></a>
<a href="../relationships/id-08344826a59f40aab1bf69eb99bb7930/" target="_top"><title>Association</title><path d="M179.6 190 L179.8 231" fill="none" stroke="#333" stroke-width="1.2"/><path d="M179.6 190 L179.8 231" fill="none" stroke="transparent" stroke-width="8"/></a>
<a href="../relationships/id-5c0f31e717bb4f49ade4603268e78076/" target="_top"><title>Association</title><path d="M802.6 190 L802.8 231" fill="none" stroke="#333" stroke-width="1.2"/><path d="M802.6 190 L802.8 231" fill="none" stroke="transparent" stroke-width="8"/></a>
<a href="../relationships/id-1c0cb0c2765b4742b5385e4219bfd554/" target="_top"><title>Association</title><path d="M335.6 190 L335.8 231" fill="none" stroke="#333" stroke-width="1.2"/><path d="M335.6 190 L335.8 231" fill="none" stroke="transparent" stroke-width="8"/></a>
<a href="../relationships/id-4753300e0d154f2ebc8458b0bdb18e57/" target="_top"><title>Association</title><path d="M491.6 190 L491.8 231" fill="none" stroke="#333" stroke-width="1.2"/><path d="M491.6 190 L491.8 231" fill="none" stroke="transparent" stroke-width="8"/></a>
<a href="../relationships/id-ce83ffa5816248e39b14c3f0fe8a364a/" target="_top"><title>Association</title><path d="M647.6 190 L647.8 231" fill="none" stroke="#333" stroke-width="1.2"/><path d="M647.6 190 L647.8 231" fill="none" stroke="transparent" stroke-width="8"/></a>
<a href="../relationships/id-f5ba901e8ad64c1f938a4e799203df64/" target="_top"><title>Association</title><path d="M959.4 190 L959.2 231" fill="none" stroke="#333" stroke-width="1.2"/><path d="M959.4 190 L959.2 231" fill="none" stroke="transparent" stroke-width="8"/></a>
<a href="../relationships/id-d0a79b74f60246ca9a7502d961170fa7/" target="_top"><title>Association</title><path d="M252 292.4 L417.7 351" fill="none" stroke="#333" stroke-width="1.2"/><path d="M252 292.4 L417.7 351" fill="none" stroke="transparent" stroke-width="8"/></a>
<a href="../relationships/id-7de445eed3a64c77bf9abd1a543b9358/" target="_top"><title>Association</title><path d="M512.8 303 L540.5 351" fill="none" stroke="#333" stroke-width="1.2"/><path d="M512.8 303 L540.5 351" fill="none" stroke="transparent" stroke-width="8"/></a>
<a href="../relationships/id-2d15cca0a74b4bd79af3581c36a9e61e/" target="_top"><title>Association</title><path d="M628.2 303 L601.9 351" fill="none" stroke="#333" stroke-width="1.2"/><path d="M628.2 303 L601.9 351" fill="none" stroke="transparent" stroke-width="8"/></a>
<a href="../relationships/id-95e04e1d74054da0b741c29ab259e033/" target="_top"><title>Association</title><path d="M743 303 L662.9 351" fill="none" stroke="#333" stroke-width="1.2"/><path d="M743 303 L662.9 351" fill="none" stroke="transparent" stroke-width="8"/></a>
<a href="../relationships/id-2e3f6422751d4292a1547471d447fd4b/" target="_top"><title>Association</title><path d="M887 292.8 L724.3 351" fill="none" stroke="#333" stroke-width="1.2"/><path d="M887 292.8 L724.3 351" fill="none" stroke="transparent" stroke-width="8"/></a>
<a href="../relationships/id-116f9c6860c8476a8559d5b2f5a62ca1/" target="_top"><title>Aggregation</title><path d="M681 414.5 L581 406.2" fill="none" stroke="#333" stroke-width="1.2" marker-start="url(#diamond-hollow)"/><path d="M681 414.5 L581 406.2" fill="none" stroke="transparent" stroke-width="8"/></a>
<a href="../relationships/id-3abf7bdf400e46daadd73c5bf5655a09/" target="_top"><title>Influence</title><path d="M571.9 460 L571.8 507" fill="none" stroke="#333" stroke-width="1.2" stroke-dasharray="6 4" marker-end="url(#arrow-open)"/><path d="M571.9 460 L571.8 507" fill="none" stroke="transparent" stroke-width="8"/></a>
<a href="../relationships/id-51eddf554d4947e3aa4d82aa0aa1997c/" target="_top"><title>Aggregation</title><path d="M225 414.5 L325 411.9" fill="none" stroke="#333" stroke-width="1.2" marker-start="url(#diamond-hollow)"/><path d="M225 414.5 L325 411.9" fill="none" stroke="transparent" stroke-width="8"/></a>
<a href="../relationships/id-04556b5de98a4c1182a14ac18d064a22/" target="_top"><title>Aggregation</title><path d="M909 414.5 L809 411.8" fill="none" stroke="#333" stroke-width="1.2" marker-start="url(#diamond-hollow)"/><path d="M909 414.5 L809 411.8" fill="none" stroke="transparent" stroke-width="8"/></a>
<a href="../relationships/id-10f61837d449440dac59c0cd86bd1ee6/" target="_top"><title>Aggregation</title><path d="M453 414.5 L553 406.9" fill="none" stroke="#333" stroke-width="1.2" marker-start="url(#diamond-hollow)"/><path d="M453 414.5 L553 406.9" fill="none" stroke="transparent" stroke-width="8"/></a>
<a href="../relationships/id-a9b138b9d05149a292463c409f4128fe/" target="_top"><title>Association</title><path d="M397.3 303 L479.1 351" fill="none" stroke="#333" stroke-width="1.2"/><path d="M397.3 303 L479.1 351" fill="none" stroke="transparent" stroke-width="8"/></a>
<a href="../relationships/id-64b543db4fb04fe38e8bc415b8f6ce60/" target="_top"><title>Composition</title><path d="M227.5 681.5 L330 663.5" fill="none" stroke="#333" stroke-width="1.2" marker-start="url(#diamond-filled)"/><path d="M227.5 681.5 L330 663.5" fill="none" stroke="transparent" stroke-width="8"/></a>
<a href="../relationships/id-42f3373cd45e4fe1ac3efd8c5eb435f3/" target="_top"><title>Composition</title><path d="M454 681.5 L513.2 651" fill="none" stroke="#333" stroke-width="1.2" marker-start="url(#diamond-filled)"/><path d="M454 681.5 L513.2 651" fill="none" stroke="transparent" stroke-width="8"/></a>
<a href="../relationships/id-ff1cd82049b24e7388db41baeb062491/" target="_top"><title>Composition</title><path d="M683.5 681.5 L627 651" fill="none" stroke="#333" stroke-width="1.2" marker-start="url(#diamond-filled)"/><path d="M683.5 681.5 L627 651" fill="none" stroke="transparent" stroke-width="8"/></a>
<a href="../relationships/id-15a8f28785844b29bfb41e91f3d8c3db/" target="_top"><title>Composition</title><path d="M569 573.5 L570.6 604" fill="none" stroke="#333" stroke-width="1.2" marker-start="url(#diamond-filled)"/><path d="M569 573.5 L570.6 604" fill="none" stroke="transparent" stroke-width="8"/></a>
<a href="../relationships/id-4b478ae495e84556abb9acfc80c2ff81/" target="_top"><title>Composition</title><path d="M911.5 681.5 L809 663.3" fill="none" stroke="#333" stroke-width="1.2" marker-start="url(#diamond-filled)"/><path d="M911.5 681.5 L809 663.3" fill="none" stroke="transparent" stroke-width="8"/></a>
<a href="../relationships/id-2f7fc5cdd9a64ba8ad883ad45101f79f/" target="_top"><title>Composition</title><path d="M472.6 604 L323.9 651" fill="none" stroke="#333" stroke-width="1.2" marker-start="url(#diamond-filled)"/><path d="M472.6 604 L323.9 651" fill="none" stroke="transparent" stroke-width="8"/></a>
<a href="../relationships/id-49dc833d074143629b68764e94cc26d7/" target="_top"><title>Composition</title><path d="M601.3 604 L651.2 651" fill="none" stroke="#333" stroke-width="1.2" marker-start="url(#diamond-filled)"/><path d="M601.3 604 L651.2 651" fill="none" stroke="transparent" stroke-width="8"/></a>
<a href="../relationships/id-a55a6e295200471990218a7f4cf1e32b/" target="_top"><title>Composition</title><path d="M536.5 604 L486.5 651" fill="none" stroke="#333" stroke-width="1.2" marker-start="url(#diamond-filled)"/><path d="M536.5 604 L486.5 651" fill="none" stroke="transparent" stroke-width="8"/></a>
<a href="../relationships/id-ac98d1e8a8ee496ba71eb2b14cd6be5c/" target="_top"><title>Composition</title><path d="M665.7 604 L814.8 651" fill="none" stroke="#333" stroke-width="1.2" marker-start="url(#diamond-filled)"/><path d="M665.7 604 L814.8 651" fill="none" stroke="transparent" stroke-width="8"/></a></svg>
