<svg xmlns="http://www.w3.org/2000/svg" viewBox="-32 76 1385 281" width="1385" height="281" role="img" aria-labelledby="av-title"><title id="av-title">High Level View - Q&amp;CC — WHO Models</title><style>
.av-name{font:600 11px system-ui,-apple-system,"Segoe UI",sans-serif;fill:#111}
.av-type{font:italic 8px system-ui,sans-serif;fill:#555}
.av-group{font:600 11px system-ui,sans-serif;fill:#333}
.av-note{font:10px system-ui,sans-serif;fill:#222}
.av-rel{font:9px system-ui,sans-serif;fill:#333;paint-order:stroke;stroke:#fff;stroke-width:3px}
a:hover rect,a:hover polygon,a:focus rect,a:focus polygon{stroke:#06c;stroke-width:2.5}
</style><defs>
<marker id="arrow-open" viewBox="0 0 12 12" refX="11" refY="6" markerWidth="11" markerHeight="11" orient="auto-start-reverse" markerUnits="userSpaceOnUse"><path d="M1 1 L11 6 L1 11" fill="none" stroke="#333" stroke-width="1.3"/></marker>
<marker id="arrow-filled" viewBox="0 0 12 12" refX="11" refY="6" markerWidth="11" markerHeight="11" orient="auto-start-reverse" markerUnits="userSpaceOnUse"><path d="M1 1 L11 6 L1 11 Z" fill="#333"/></marker>
<marker id="arrow-small" viewBox="0 0 10 10" refX="9" refY="5" markerWidth="8" markerHeight="8" orient="auto-start-reverse" markerUnits="userSpaceOnUse"><path d="M1 1 L9 5 L1 9" fill="none" stroke="#333" stroke-width="1.2"/></marker>
<marker id="triangle-hollow" viewBox="0 0 14 14" refX="13" refY="7" markerWidth="13" markerHeight="13" orient="auto-start-reverse" markerUnits="userSpaceOnUse"><path d="M1 1 L13 7 L1 13 Z" fill="#fff" stroke="#333" stroke-width="1.2"/></marker>
<marker id="diamond-filled" viewBox="0 0 16 10" refX="1" refY="5" markerWidth="16" markerHeight="10" orient="auto-start-reverse" markerUnits="userSpaceOnUse"><path d="M1 5 L8 1 L15 5 L8 9 Z" fill="#333"/></marker>
<marker id="diamond-hollow" viewBox="0 0 16 10" refX="1" refY="5" markerWidth="16" markerHeight="10" orient="auto-start-reverse" markerUnits="userSpaceOnUse"><path d="M1 5 L8 1 L15 5 L8 9 Z" fill="#fff" stroke="#333" stroke-width="1.2"/></marker>
<marker id="dot" viewBox="0 0 8 8" refX="4" refY="4" markerWidth="7" markerHeight="7" orient="auto" markerUnits="userSpaceOnUse"><circle cx="4" cy="4" r="3.2" fill="#333"/></marker>
<pattern id="missing" width="8" height="8" patternUnits="userSpaceOnUse" patternTransform="rotate(45)"><rect width="8" height="8" fill="#fff"/><line x1="0" y1="0" x2="0" y2="8" stroke="#d33" stroke-width="2"/></pattern>
</defs><rect x="-32" y="76" width="1385" height="281" fill="#fff"/><a href="../elements/id-3ece08ca83a648e0b9b86b45947ef885/" target="_top"><title>Comprehensive Needs Assessment : Systematic evaluation of patient&#39;s complete health status, risks, and care requirements. (Goal)</title><polygon points="-2,228 159,228 169,238 169,327 159,337 -2,337 -12,327 -12,238" fill="#ccccff" stroke="#70708c" stroke-width="1"/><text class="av-type" x="160" y="238" text-anchor="end">Goal</text><text class="av-name" x="78.5" y="251" text-anchor="middle"><tspan x="78.5" dy="0">Comprehensive Needs</tspan><tspan x="78.5" dy="13.75">Assessment : Systematic</tspan><tspan x="78.5" dy="13.75">evaluation of patient&#39;s</tspan><tspan x="78.5" dy="13.75">complete health status,</tspan><tspan x="78.5" dy="13.75">risks, and care</tspan><tspan x="78.5" dy="13.75">requirements.</tspan></text></a>
<a href="../elements/id-8924b4bd06954633b55d505190724da4/" target="_top"><title>Shared Care Planning: Collaborative development and maintenance of coordinated care plans across all providers. (Goal)</title><polygon points="190,228 351,228 361,238 361,327 351,337 190,337 180,327 180,238" fill="#ccccff" stroke="#70708c" stroke-width="1"/><text class="av-type" x="352" y="238" text-anchor="end">Goal</text><text class="av-name" x="270.5" y="251" text-anchor="middle"><tspan x="270.5" dy="0">Shared Care Planning:</tspan><tspan x="270.5" dy="13.75">Collaborative development</tspan><tspan x="270.5" dy="13.75">and maintenance of</tspan><tspan x="270.5" dy="13.75">coordinated care plans</tspan><tspan x="270.5" dy="13.75">across all providers.</tspan></text></a>
<a href="../elements/id-aad1509f6a0949b9af89e2882e123c06/" target="_top"><title>Care Transition Management: Structured handoffs and continuity protocols between care settings and providers. (Goal)</title><polygon points="382,228 531,228 541,238 541,327 531,337 382,337 372,327 372,238" fill="#ccccff" stroke="#70708c" stroke-width="1"/><text class="av-type" x="532" y="238" text-anchor="end">Goal</text><text class="av-name" x="456.5" y="251" text-anchor="middle"><tspan x="456.5" dy="0">Care Transition</tspan><tspan x="456.5" dy="13.75">Management: Structured</tspan><tspan x="456.5" dy="13.75">handoffs and continuity</tspan><tspan x="456.5" dy="13.75">protocols between care</tspan><tspan x="456.5" dy="13.75">settings and providers.</tspan></text></a>
<a href="../elements/id-52f225a7e6134d13aeb294e434e008ac/" target="_top"><title>Longitudinal Care Coordination - Ongoing coordination of care activities across time, settings, and disciplines. (Goal)</title><polygon points="562,228 711,228 721,238 721,327 711,337 562,337 552,327 552,238" fill="#ccccff" stroke="#70708c" stroke-width="1"/><text class="av-type" x="712" y="238" text-anchor="end">Goal</text><text class="av-name" x="636.5" y="251" text-anchor="middle"><tspan x="636.5" dy="0">Longitudinal Care</tspan><tspan x="636.5" dy="13.75">Coordination - Ongoing</tspan><tspan x="636.5" dy="13.75">coordination of care</tspan><tspan x="636.5" dy="13.75">activities across time,</tspan><tspan x="636.5" dy="13.75">settings, and</tspan><tspan x="636.5" dy="13.75">disciplines.</tspan></text></a>
<a href="../elements/id-c8e479bf67ec46f4b54487132c80601b/" target="_top"><title>Clinical decision support integration (Goal)</title><polygon points="742,228 831,228 841,238 841,327 831,337 742,337 732,327 732,238" fill="#ccccff" stroke="#70708c" stroke-width="1"/><text class="av-type" x="832" y="238" text-anchor="end">Goal</text><text class="av-name" x="786.5" y="251" text-anchor="middle"><tspan x="786.5" dy="0">Clinical</tspan><tspan x="786.5" dy="13.75">decision support</tspan><tspan x="786.5" dy="13.75">integration</tspan></text></a>
<a href="../elements/id-31ab37a0327b44b99e525896368274a5/" target="_top"><title>Patient and family engagement (Goal)</title><polygon points="862,228 999,228 1009,238 1009,327 999,337 862,337 852,327 852,238" fill="#ccccff" stroke="#70708c" stroke-width="1"/><text class="av-type" x="1000" y="238" text-anchor="end">Goal</text><text class="av-name" x="930.5" y="251" text-anchor="middle"><tspan x="930.5" dy="0">Patient and family</tspan><tspan x="930.5" dy="13.75">engagement</tspan></text></a>
<a href="../elements/id-ba1cc1772d824cb6a9f72fd8222bf36b/" target="_top"><title>Quality monitoring and improvement (Goal)</title><polygon points="1222,228 1323,228 1333,238 1333,327 1323,337 1222,337 1212,327 1212,238" fill="#ccccff" stroke="#70708c" stroke-width="1"/><text class="av-type" x="1324" y="238" text-anchor="end">Goal</text><text class="av-name" x="1272.5" y="251" text-anchor="middle"><tspan x="1272.5" dy="0">Quality monitoring</tspan><tspan x="1272.5" dy="13.75">and improvement</tspan></text></a>
<a href="../elements/id-5ce8a3b06b034499bfff57e230bf7ca5/" target="_top"><title>Care team communication  (Goal)</title><polygon points="1030,228 1191,228 1201,238 1201,327 1191,337 1030,337 1020,327 1020,238" fill="#ccccff" stroke="#70708c" stroke-width="1"/><text class="av-type" x="1192" y="238" text-anchor="end">Goal</text><text class="av-name" x="1110.5" y="251" text-anchor="middle"><tspan x="1110.5" dy="0">Care team communication</tspan></text></a>
<a href="../elements/id-2b13bd4c59334a99b59267a323a5ebc2/" target="_top"><title>Implement task-sharing and digital decision support systems to improve the continuity and quality of patient care across healthcare facilities over time to achieve integrated, person-centred care. (Goal)</title><polygon points="-2,96 1311,96 1321,106 1321,141 1311,151 -2,151 -12,141 -12,106" fill="#ccccff" stroke="#70708c" stroke-width="1"/><text class="av-type" x="1312" y="106" text-anchor="end">Goal</text><text class="av-name" x="654.5" y="119" text-anchor="middle"><tspan x="654.5" dy="0">Implement task-sharing and digital decision support systems to improve the continuity and quality of patient care across healthcare facilities over time to achieve integrated, person-centred care.</tspan></text></a>
<a href="../relationships/id-3f068147097747b8b9917afce204d0fe/" target="_top"><title>Composition</title><path d="M169 257.5 L554.9 151" fill="none" stroke="#333" stroke-width="1.2" marker-start="url(#diamond-filled)"/><path d="M169 257.5 L554.9 151" fill="none" stroke="transparent" stroke-width="8"/></a>
<a href="../relationships/id-61efedbe65eb4b39ba85ceabe35a78bf/" target="_top"><title>Composition</title><path d="M361 245 L588.1 151" fill="none" stroke="#333" stroke-width="1.2" marker-start="url(#diamond-filled)"/><path d="M361 245 L588.1 151" fill="none" stroke="transparent" stroke-width="8"/></a>
<a href="../relationships/id-588ca3966ddc4a4d911b049d57e2b3f3/" target="_top"><title>Composition</title><path d="M524.4 228 L620.3 151" fill="none" stroke="#333" stroke-width="1.2" marker-start="url(#diamond-filled)"/><path d="M524.4 228 L620.3 151" fill="none" stroke="transparent" stroke-width="8"/></a>
<a href="../relationships/id-a7dfa7f2d3d14c0f87e6eb3130e7b31a/" target="_top"><title>Composition</title><path d="M642.7 228 L651.4 151" fill="none" stroke="#333" stroke-width="1.2" marker-start="url(#diamond-filled)"/><path d="M642.7 228 L651.4 151" fill="none" stroke="transparent" stroke-width="8"/></a>
<a href="../relationships/id-42dfb477448d45178ea34da14a8acf6a/" target="_top"><title>Composition</title><path d="M741.3 228 L677.3 151" fill="none" stroke="#333" stroke-width="1.2" marker-start="url(#diamond-filled)"/><path d="M741.3 228 L677.3 151" fill="none" stroke="transparent" stroke-width="8"/></a>
<a href="../relationships/id-5273573456df456f95c9fa68b0a1519c/" target="_top"><title>Composition</title><path d="M852 237.3 L702.2 151" fill="none" stroke="#333" stroke-width="1.2" marker-start="url(#diamond-filled)"/><path d="M852 237.3 L702.2 151" fill="none" stroke="transparent" stroke-width="8"/></a>
<a href="../relationships/id-05750f33733f4c168b90ef85ffd6c804/" target="_top"><title>Composition</title><path d="M1212 266.9 L761.4 151" fill="none" stroke="#333" stroke-width="1.2" marker-start="url(#diamond-filled)"/><path d="M1212 266.9 L761.4 151" fill="none" stroke="transparent" stroke-width="8"/></a>
<a href="../relationships/id-6a9a1bfd588a4551a3db18c9b625ceb4/" target="_top"><title>Composition</title><path d="M1020 250.9 L733.4 151" fill="none" stroke="#333" stroke-width="1.2" marker-start="url(#diamond-filled)"/><path d="M1020 250.9 L733.4 151" fill="none" stroke="transparent" stroke-width="8"/></a></svg>
