<svg xmlns="http://www.w3.org/2000/svg" viewBox="184 84 1599 1053" width="1599" height="1053" role="img" aria-labelledby="av-title"><title id="av-title">ALL High Level - Financing — WHO Models</title><style>
.av-name{font:600 11px system-ui,-apple-system,"Segoe UI",sans-serif;fill:#111}
.av-type{font:italic 8px system-ui,sans-serif;fill:#555}
.av-group{font:600 11px system-ui,sans-serif;fill:#333}
.av-note{font:10px system-ui,sans-serif;fill:#222}
.av-rel{font:9px system-ui,sans-serif;fill:#333;paint-order:stroke;stroke:#fff;stroke-width:3px}
a:hover rect,a:hover polygon,a:focus rect,a:focus polygon{stroke:#06c;stroke-width:2.5}
</style><defs>
<marker id="arrow-open" viewBox="0 0 12 12" refX="11" refY="6" markerWidth="11" markerHeight="11" orient="auto-start-reverse" markerUnits="userSpaceOnUse"><path d="M1 1 L11 6 L1 11" fill="none" stroke="#333" stroke-width="1.3"/></marker>
<marker id="arrow-filled" viewBox="0 0 12 12" refX="11" refY="6" markerWidth="11" markerHeight="11" orient="auto-start-reverse" markerUnits="userSpaceOnUse"><path d="M1 1 L11 6 L1 11 Z" fill="#333"/></marker>
<marker id="arrow-small" viewBox="0 0 10 10" refX="9" refY="5" markerWidth="8" markerHeight="8" orient="auto-start-reverse" markerUnits="userSpaceOnUse"><path d="M1 1 L9 5 L1 9" fill="none" stroke="#333" stroke-width="1.2"/></marker>
<marker id="triangle-hollow" viewBox="0 0 14 14" refX="13" refY="7" markerWidth="13" markerHeight="13" orient="auto-start-reverse" markerUnits="userSpaceOnUse"><path d="M1 1 L13 7 L1 13 Z" fill="#fff" stroke="#333" stroke-width="1.2"/></marker>
<marker id="diamond-filled" viewBox="0 0 16 10" refX="1" refY="5" markerWidth="16" markerHeight="10" orient="auto-start-reverse" markerUnits="userSpaceOnUse"><path d="M1 5 L8 1 L15 5 L8 9 Z" fill="#333"/></marker>
<marker id="diamond-hollow" viewBox="0 0 16 10" refX="1" refY="5" markerWidth="16" markerHeight="10" orient="auto-start-reverse" markerUnits="userSpaceOnUse"><path d="M1 5 L8 1 L15 5 L8 9 Z" fill="#fff" stroke="#333" stroke-width="1.2"/></marker>
<marker id="dot" viewBox="0 0 8 8" refX="4" refY="4" markerWidth="7" markerHeight="7" orient="auto" markerUnits="userSpaceOnUse"><circle cx="4" cy="4" r="3.2" fill="#333"/></marker>
<pattern id="missing" width="8" height="8" patternUnits="userSpaceOnUse" patternTransform="rotate(45)"><rect width="8" height="8" fill="#fff"/><line x1="0" y1="0" x2="0" y2="8" stroke="#d33" stroke-width="2"/></pattern>
</defs><rect x="184" y="84" width="1599" height="1053" fill="#fff"/><a href="../elements/id-87184eb1729d468785f1f1f4e078112a/" target="_top"><title>Informed financial planning (Goal)</title><polygon points="214,281 395,281 405,291 405,347 395,357 214,357 204,347 204,291" fill="#ccccff" stroke="#70708c" stroke-width="1"/><text class="av-type" x="396" y="291" text-anchor="end">Goal</text><text class="av-name" x="304.5" y="304" text-anchor="middle"><tspan x="304.5" dy="0">Informed financial planning</tspan></text></a>
<a href="../elements/id-d0cc9815317b495bad5850d55bf3f793/" target="_top"><title>Strategic purchasing and provider payments (Goal)</title><polygon points="438,281 619,281 629,291 629,347 619,357 438,357 428,347 428,291" fill="#ccccff" stroke="#70708c" stroke-width="1"/><text class="av-type" x="620" y="291" text-anchor="end">Goal</text><text class="av-name" x="528.5" y="304" text-anchor="middle"><tspan x="528.5" dy="0">Strategic purchasing and</tspan><tspan x="528.5" dy="13.75">provider payments</tspan></text></a>
<a href="../elements/id-e424d45924894af2a3088cf7c503a684/" target="_top"><title>Protection mechanisms for health system users (Goal)</title><polygon points="666,284 847,284 857,294 857,344 847,354 666,354 656,344 656,294" fill="#ccccff" stroke="#70708c" stroke-width="1"/><text class="av-type" x="848" y="294" text-anchor="end">Goal</text><text class="av-name" x="756.5" y="307" text-anchor="middle"><tspan x="756.5" dy="0">Protection mechanisms for</tspan><tspan x="756.5" dy="13.75">health system users</tspan></text></a>
<a href="../elements/id-889bb239933a46aeb17ee6cbd75332c2/" target="_top"><title>Transparency &amp; Accountability (Goal)</title><polygon points="894,284 1075,284 1085,294 1085,344 1075,354 894,354 884,344 884,294" fill="#ccccff" stroke="#70708c" stroke-width="1"/><text class="av-type" x="1076" y="294" text-anchor="end">Goal</text><text class="av-name" x="984.5" y="307" text-anchor="middle"><tspan x="984.5" dy="0">Transparency &amp; Accountability</tspan></text></a>
<a href="../elements/id-d68f9be4bb674c059e4fa7db549251d8/" target="_top"><title>Utilize digital solutions to streamline healthcare financing and strategic payment processes for improved efficiency and transparency.  (Goal)</title><polygon points="214,164 1751,164 1761,174 1761,233 1751,243 214,243 204,233 204,174" fill="#ccccff" stroke="#70708c" stroke-width="1"/><text class="av-type" x="1752" y="174" text-anchor="end">Goal</text><text class="av-name" x="982.5" y="187" text-anchor="middle"><tspan x="982.5" dy="0">Utilize digital solutions to streamline healthcare financing and strategic payment processes for improved efficiency and transparency.</tspan></text></a>
<g class="av-n"><polygon points="204,104 499,104 509,114 509,141 204,141" fill="#ffffff" stroke="#888"/><text class="av-note" x="210" y="119"><tspan x="210" dy="0">Financing in Healthcare&amp;#xD;</tspan></text></g>
<a href="../elements/id-1063e86fbba34ac499533e39a3ed620b/" target="_top"><title>Financial Planning &amp; Budgeting (Value Stream)</title><rect x="211" y="460" width="194" height="77" rx="38.5" fill="#f5deaa" stroke="#877a5e" stroke-width="1"/><text class="av-type" x="379.3333333333333" y="470" text-anchor="end">Value Stream</text><text class="av-name" x="308" y="483" text-anchor="middle"><tspan x="308" dy="0">Financial Planning &amp;</tspan><tspan x="308" dy="13.75">Budgeting</tspan></text></a>
<g class="av-n"><polygon points="204,404 619,404 629,414 629,441 204,441" fill="#ffffff" stroke="#888"/><text class="av-note" x="210" y="419"><tspan x="210" dy="0">Finance Lifecycle Management</tspan></text></g>
<a href="../elements/id-7ff62c4f0291485cbb122e29f0d8da2f/" target="_top"><title>Strategic Purchasing &amp; Provider Payment (Value Stream)</title><rect x="435" y="460" width="194" height="77" rx="38.5" fill="#f5deaa" stroke="#877a5e" stroke-width="1"/><text class="av-type" x="603.3333333333334" y="470" text-anchor="end">Value Stream</text><text class="av-name" x="532" y="483" text-anchor="middle"><tspan x="532" dy="0">Strategic Purchasing &amp;</tspan><tspan x="532" dy="13.75">Provider Payment</tspan></text></a>
<a href="../elements/id-71edfe145d0b4330915f853c28e4498e/" target="_top"><title>Member Protection &amp; Entitlement Management (Value Stream)</title><rect x="663" y="460" width="194" height="77" rx="38.5" fill="#f5deaa" stroke="#877a5e" stroke-width="1"/><text class="av-type" x="831.3333333333334" y="470" text-anchor="end">Value Stream</text><text class="av-name" x="760" y="483" text-anchor="middle"><tspan x="760" dy="0">Member Protection &amp;</tspan><tspan x="760" dy="13.75">Entitlement Management</tspan></text></a>
<a href="../elements/id-b7d09b24e45549f19500f3ac46d45cd8/" target="_top"><title>Transparency &amp; Accountability (Value Stream)</title><rect x="887" y="460" width="194" height="77" rx="38.5" fill="#f5deaa" stroke="#877a5e" stroke-width="1"/><text class="av-type" x="1055.3333333333333" y="470" text-anchor="end">Value Stream</text><text class="av-name" x="984" y="483" text-anchor="middle"><tspan x="984" dy="0">Transparency &amp; Accountability</tspan></text></a>
<a href="../elements/id-4bccca21e85d438693013982e0e5c634/" target="_top"><title>Health Purchasing &amp; Payment Management (Business Function)</title><rect x="435" y="584" width="206" height="137" rx="8" fill="#ffffb5" stroke="#8c8c64" stroke-width="1"/><text class="av-type" x="636" y="594" text-anchor="end">Business Function</text><text class="av-name" x="538" y="607" text-anchor="middle"><tspan x="538" dy="0">Health Purchasing &amp; Payment</tspan><tspan x="538" dy="13.75">Management</tspan></text></a>
<a href="../elements/id-2882f559f4754d178e1596361c25139d/" target="_top"><title>Onboard Provider (Business Process)</title><rect x="447" y="632" width="181" height="37" rx="8" fill="#ffffb5" stroke="#8c8c64" stroke-width="1"/><text class="av-type" x="623" y="642" text-anchor="end">Business Process</text><text class="av-name" x="537.5" y="655" text-anchor="middle"><tspan x="537.5" dy="0">Onboard Provider</tspan></text></a>
<a href="../elements/id-f9834d2a3a1441899adbd76eba9f4a09/" target="_top"><title>Validate Provider Credentials (Business Process)</title><rect x="447" y="680" width="182" height="25" rx="8" fill="#ffffb5" stroke="#8c8c64" stroke-width="1"/><text class="av-type" x="624" y="690" text-anchor="end">Business Process</text><text class="av-name" x="538" y="703" text-anchor="middle"><tspan x="538" dy="0">Validate Provider…</tspan></text></a>
<a href="../elements/id-8c5a6c7e66da4b10936e62d3235683dc/" target="_top"><title>Contracting &amp; Tariff Management (Business Function)</title><rect x="435" y="732" width="206" height="127" rx="8" fill="#ffffb5" stroke="#8c8c64" stroke-width="1"/><text class="av-type" x="636" y="742" text-anchor="end">Business Function</text><text class="av-name" x="538" y="755" text-anchor="middle"><tspan x="538" dy="0">Contracting &amp; Tariff Management</tspan></text></a>
<a href="../elements/id-eddc7ef6529e424b8bc43075b2a4e0f7/" target="_top"><title>Define Contract &amp; Tariff (Business Process)</title><rect x="447" y="768" width="182" height="37" rx="8" fill="#ffffb5" stroke="#8c8c64" stroke-width="1"/><text class="av-type" x="624" y="778" text-anchor="end">Business Process</text><text class="av-name" x="538" y="791" text-anchor="middle"><tspan x="538" dy="0">Define Contract &amp; Tariff</tspan></text></a>
<a href="../elements/id-00b902f19edc4810b7a827707dd941bc/" target="_top"><title>Version Contract &amp; Tariff (Business Process)</title><rect x="447" y="816" width="182" height="37" rx="8" fill="#ffffb5" stroke="#8c8c64" stroke-width="1"/><text class="av-type" x="624" y="826" text-anchor="end">Business Process</text><text class="av-name" x="538" y="839" text-anchor="middle"><tspan x="538" dy="0">Version Contract &amp; Tariff</tspan></text></a>
<a href="../elements/id-d8188e00322c485188c7de4ddd4f968e/" target="_top"><title>Eligibility &amp; Entitlement Management (Business Function)</title><rect x="681" y="788" width="174" height="55" rx="8" fill="#ffffb5" stroke="#8c8c64" stroke-width="1"/><text class="av-type" x="850" y="798" text-anchor="end">Business Function</text><text class="av-name" x="768" y="811" text-anchor="middle"><tspan x="768" dy="0">Eligibility &amp; Entitlement</tspan><tspan x="768" dy="13.75">Management</tspan></text></a>
<a href="../elements/id-99fe73b4a7034182ba6c7629f3c16f08/" target="_top"><title>Consent &amp; Privacy Governance (Business Function)</title><rect x="681" y="854" width="174" height="55" rx="8" fill="#ffffb5" stroke="#8c8c64" stroke-width="1"/><text class="av-type" x="850" y="864" text-anchor="end">Business Function</text><text class="av-name" x="768" y="877" text-anchor="middle"><tspan x="768" dy="0">Consent &amp; Privacy</tspan><tspan x="768" dy="13.75">Governance</tspan></text></a>
<a href="../elements/id-e6089e57c041477cabb1ce5b7d2f334f/" target="_top"><title>Unified Health Accounts Management (Business Function)</title><rect x="205" y="584" width="205" height="199" rx="8" fill="#ffffb5" stroke="#8c8c64" stroke-width="1"/><text class="av-type" x="405" y="594" text-anchor="end">Business Function</text><text class="av-name" x="307.5" y="607" text-anchor="middle"><tspan x="307.5" dy="0">Unified Health Accounts</tspan><tspan x="307.5" dy="13.75">Management</tspan></text></a>
<a href="../elements/id-ec0ab80b1fa44007ae70ffdb0e8e7c99/" target="_top"><title>Aggregate Financial Data (Business Process)</title><rect x="220" y="632" width="171" height="37" rx="8" fill="#ffffb5" stroke="#8c8c64" stroke-width="1"/><text class="av-type" x="386" y="642" text-anchor="end">Business Process</text><text class="av-name" x="305.5" y="655" text-anchor="middle"><tspan x="305.5" dy="0">Aggregate Financial Data</tspan></text></a>
<a href="../elements/id-1895b0f4249047ff817add85d06f84c8/" target="_top"><title>Normalize &amp; Classify Financial Data (Business Process)</title><rect x="220" y="680" width="171" height="37" rx="8" fill="#ffffb5" stroke="#8c8c64" stroke-width="1"/><text class="av-type" x="386" y="690" text-anchor="end">Business Process</text><text class="av-name" x="305.5" y="703" text-anchor="middle"><tspan x="305.5" dy="0">Normalize &amp; Classify…</tspan></text></a>
<a href="../elements/id-7f73911736644bfcbca7b5a106bb68f5/" target="_top"><title>Maintain Financial Master Data (Business Process)</title><rect x="220" y="728" width="171" height="37" rx="8" fill="#ffffb5" stroke="#8c8c64" stroke-width="1"/><text class="av-type" x="386" y="738" text-anchor="end">Business Process</text><text class="av-name" x="305.5" y="751" text-anchor="middle"><tspan x="305.5" dy="0">Maintain Financial Master…</tspan></text></a>
<a href="../elements/id-e2db1436e47447169d2b9922a7f19547/" target="_top"><title>Insurance Enrollment Management (Business Function)</title><rect x="663" y="584" width="210" height="181" rx="8" fill="#ffffb5" stroke="#8c8c64" stroke-width="1"/><text class="av-type" x="868" y="594" text-anchor="end">Business Function</text><text class="av-name" x="768" y="607" text-anchor="middle"><tspan x="768" dy="0">Insurance Enrollment Management</tspan></text></a>
<a href="../elements/id-1cccb1ae6c11417788d84c99fca99bb9/" target="_top"><title>Discover Insurance Scheme (Business Process)</title><rect x="677" y="632" width="174" height="37" rx="8" fill="#ffffb5" stroke="#8c8c64" stroke-width="1"/><text class="av-type" x="846" y="642" text-anchor="end">Business Process</text><text class="av-name" x="764" y="655" text-anchor="middle"><tspan x="764" dy="0">Discover Insurance Scheme</tspan></text></a>
<a href="../elements/id-bfa0362731164d91a5fdf499a392806f/" target="_top"><title>Enroll Member (Business Process)</title><rect x="677" y="680" width="174" height="25" rx="8" fill="#ffffb5" stroke="#8c8c64" stroke-width="1"/><text class="av-type" x="846" y="690" text-anchor="end">Business Process</text><text class="av-name" x="764" y="703" text-anchor="middle"><tspan x="764" dy="0">Enroll Member</tspan></text></a>
<a href="../elements/id-7f576247608a409a88b34c541b9895f3/" target="_top"><title>Maintain Policy &amp; Entitlements (Business Process)</title><rect x="677" y="716" width="174" height="37" rx="8" fill="#ffffb5" stroke="#8c8c64" stroke-width="1"/><text class="av-type" x="846" y="726" text-anchor="end">Business Process</text><text class="av-name" x="764" y="739" text-anchor="middle"><tspan x="764" dy="0">Maintain Policy &amp;…</tspan></text></a>
<a href="../elements/id-cb0995996d644bba9d7b25d258eb5748/" target="_top"><title>Audit &amp; Non-Repudiation Management (Business Function)</title><rect x="887" y="584" width="204" height="181" rx="8" fill="#ffffb5" stroke="#8c8c64" stroke-width="1"/><text class="av-type" x="1086" y="594" text-anchor="end">Business Function</text><text class="av-name" x="989" y="607" text-anchor="middle"><tspan x="989" dy="0">Audit &amp; Non-Repudiation</tspan><tspan x="989" dy="13.75">Management</tspan></text></a>
<a href="../elements/id-5225eb223fe84d19bfdce7d6c0bf4aed/" target="_top"><title>Log Financial Event (Business Process)</title><rect x="899" y="632" width="174" height="24" rx="8" fill="#ffffb5" stroke="#8c8c64" stroke-width="1"/><text class="av-type" x="1068" y="642" text-anchor="end">Business Process</text><text class="av-name" x="986" y="655" text-anchor="middle"><tspan x="986" dy="0">Log Financial Event</tspan></text></a>
<a href="../elements/id-e381d9cb65cf4961953827bcf782a290/" target="_top"><title> Digitally Sign Transaction (Business Process)</title><rect x="899" y="668" width="174" height="36" rx="8" fill="#ffffb5" stroke="#8c8c64" stroke-width="1"/><text class="av-type" x="1068" y="678" text-anchor="end">Business Process</text><text class="av-name" x="986" y="691" text-anchor="middle"><tspan x="986" dy="0">Digitally Sign Transaction</tspan></text></a>
<a href="../elements/id-ba52cbe8b5f0499fa809ddb3365496c7/" target="_top"><title>Timestamp Financial Record (Business Process)</title><rect x="899" y="716" width="174" height="36" rx="8" fill="#ffffb5" stroke="#8c8c64" stroke-width="1"/><text class="av-type" x="1068" y="726" text-anchor="end">Business Process</text><text class="av-name" x="986" y="739" text-anchor="middle"><tspan x="986" dy="0">Timestamp Financial Record</tspan></text></a>
<a href="../elements/id-9e98c8a7da4749d2864bbd2a82268e83/" target="_top"><title>Financial Data Exchange &amp; Reconciliation (Value Stream)</title><rect x="1115" y="460" width="193" height="77" rx="38.5" fill="#f5deaa" stroke="#877a5e" stroke-width="1"/><text class="av-type" x="1282.3333333333333" y="470" text-anchor="end">Value Stream</text><text class="av-name" x="1211.5" y="483" text-anchor="middle"><tspan x="1211.5" dy="0">Financial Data Exchange &amp;</tspan><tspan x="1211.5" dy="13.75">Reconciliation</tspan></text></a>
<a href="../elements/id-9add63b69c4d4683a038a43426c70e0b/" target="_top"><title>Budget Planning &amp; Forecasting (Business Function)</title><rect x="221" y="800" width="174" height="55" rx="8" fill="#ffffb5" stroke="#8c8c64" stroke-width="1"/><text class="av-type" x="390" y="810" text-anchor="end">Business Function</text><text class="av-name" x="308" y="823" text-anchor="middle"><tspan x="308" dy="0">Budget Planning &amp;</tspan><tspan x="308" dy="13.75">Forecasting</tspan></text></a>
<a href="../elements/id-10042981b1c6484fb0d46189e0795c31/" target="_top"><title>Financial Analytics &amp; Business Intelligence (Business Function)</title><rect x="221" y="872" width="174" height="55" rx="8" fill="#ffffb5" stroke="#8c8c64" stroke-width="1"/><text class="av-type" x="390" y="882" text-anchor="end">Business Function</text><text class="av-name" x="308" y="895" text-anchor="middle"><tspan x="308" dy="0">Financial Analytics &amp;</tspan><tspan x="308" dy="13.75">Business Intelligence</tspan></text></a>
<a href="../elements/id-ef16f11d7e48429f905369b63dfc33aa/" target="_top"><title>Financial–Clinical Data Matching (Business Function)</title><rect x="1110" y="584" width="204" height="197" rx="8" fill="#ffffb5" stroke="#8c8c64" stroke-width="1"/><text class="av-type" x="1309" y="594" text-anchor="end">Business Function</text><text class="av-name" x="1212" y="607" text-anchor="middle"><tspan x="1212" dy="0">Financial–Clinical Data</tspan><tspan x="1212" dy="13.75">Matching</tspan></text></a>
<a href="../elements/id-ebbd0f4e34dd431784a96c41f72f61dd/" target="_top"><title>Exchange Financial Data via API (Business Process)</title><rect x="1122" y="632" width="174" height="36" rx="8" fill="#ffffb5" stroke="#8c8c64" stroke-width="1"/><text class="av-type" x="1291" y="642" text-anchor="end">Business Process</text><text class="av-name" x="1209" y="655" text-anchor="middle"><tspan x="1209" dy="0">Exchange Financial Data…</tspan></text></a>
<a href="../elements/id-6145937b55794d4c9abadd02d31ef137/" target="_top"><title>Map Clinical &amp; Financial Codes (Business Process)</title><rect x="1122" y="680" width="174" height="36" rx="8" fill="#ffffb5" stroke="#8c8c64" stroke-width="1"/><text class="av-type" x="1291" y="690" text-anchor="end">Business Process</text><text class="av-name" x="1209" y="703" text-anchor="middle"><tspan x="1209" dy="0">Map Clinical &amp; Financial…</tspan></text></a>
<a href="../elements/id-abdb5f5d26664a63bc00b13e35adc312/" target="_top"><title>Match Payment to Service Record (Business Process)</title><rect x="1122" y="728" width="174" height="36" rx="8" fill="#ffffb5" stroke="#8c8c64" stroke-width="1"/><text class="av-type" x="1291" y="738" text-anchor="end">Business Process</text><text class="av-name" x="1209" y="751" text-anchor="middle"><tspan x="1209" dy="0">Match Payment to Service…</tspan></text></a>
<a href="../elements/id-e86edf3496044c569cbd2b32389c8889/" target="_top"><title>Interoperability &amp; Data Exchange (Business Function)</title><rect x="1125" y="792" width="174" height="55" rx="8" fill="#ffffb5" stroke="#8c8c64" stroke-width="1"/><text class="av-type" x="1294" y="802" text-anchor="end">Business Function</text><text class="av-name" x="1212" y="815" text-anchor="middle"><tspan x="1212" dy="0">Interoperability &amp; Data</tspan><tspan x="1212" dy="13.75">Exchange</tspan></text></a>
<a href="../elements/id-d3f22b70ad124679be033a799dee0f34/" target="_top"><title>Financial data exchange (Goal)</title><polygon points="1117,284 1298,284 1308,294 1308,344 1298,354 1117,354 1107,344 1107,294" fill="#ccccff" stroke="#70708c" stroke-width="1"/><text class="av-type" x="1299" y="294" text-anchor="end">Goal</text><text class="av-name" x="1207.5" y="307" text-anchor="middle"><tspan x="1207.5" dy="0">Financial data exchange</tspan></text></a>
<a href="../elements/id-bbbd6acdac81407db06b706bdb34aca5/" target="_top"><title>Safeguards (Goal)</title><polygon points="1342,284 1523,284 1533,294 1533,344 1523,354 1342,354 1332,344 1332,294" fill="#ccccff" stroke="#70708c" stroke-width="1"/><text class="av-type" x="1524" y="294" text-anchor="end">Goal</text><text class="av-name" x="1432.5" y="307" text-anchor="middle"><tspan x="1432.5" dy="0">Safeguards</tspan></text></a>
<a href="../elements/id-929734f492324ea5b9a6ded58b8a927d/" target="_top"><title>Streamline healthcare financing (Operational efficiency) (Goal)</title><polygon points="1570,284 1751,284 1761,294 1761,344 1751,354 1570,354 1560,344 1560,294" fill="#ccccff" stroke="#70708c" stroke-width="1"/><text class="av-type" x="1752" y="294" text-anchor="end">Goal</text><text class="av-name" x="1660.5" y="307" text-anchor="middle"><tspan x="1660.5" dy="0">Streamline healthcare financing</tspan><tspan x="1660.5" dy="13.75">(Operational efficiency)</tspan></text></a>
<a href="../elements/id-42235973c41c404bb12ab719d06320dd/" target="_top"><title>Financial Safeguards &amp; Risk Management (Value Stream)</title><rect x="1340" y="460" width="193" height="77" rx="38.5" fill="#f5deaa" stroke="#877a5e" stroke-width="1"/><text class="av-type" x="1507.3333333333333" y="470" text-anchor="end">Value Stream</text><text class="av-name" x="1436.5" y="483" text-anchor="middle"><tspan x="1436.5" dy="0">Financial Safeguards &amp; Risk</tspan><tspan x="1436.5" dy="13.75">Management</tspan></text></a>
<a href="../elements/id-073caf12eef64ec4911cbcd7a6ff765b/" target="_top"><title>Operational Efficiency &amp; Process Optimization (Value Stream)</title><rect x="1564" y="460" width="193" height="77" rx="38.5" fill="#f5deaa" stroke="#877a5e" stroke-width="1"/><text class="av-type" x="1731.3333333333333" y="470" text-anchor="end">Value Stream</text><text class="av-name" x="1660.5" y="483" text-anchor="middle"><tspan x="1660.5" dy="0">Operational Efficiency &amp;</tspan><tspan x="1660.5" dy="13.75">Process Optimization</tspan></text></a>
<a href="../elements/id-e39b3f56ea5a432ca37ea81b1f22cbe1/" target="_top"><title>Claims Adjudication Management (Business Function)</title><rect x="435" y="872" width="206" height="245" rx="8" fill="#ffffb5" stroke="#8c8c64" stroke-width="1"/><text class="av-type" x="636" y="882" text-anchor="end">Business Function</text><text class="av-name" x="538" y="895" text-anchor="middle"><tspan x="538" dy="0">Claims Adjudication Management</tspan></text></a>
<a href="../elements/id-ce90833cc39d4c178a653d154fcf8e68/" target="_top"><title>Intake Claim Submission (Business Process)</title><rect x="447" y="920" width="182" height="25" rx="8" fill="#ffffb5" stroke="#8c8c64" stroke-width="1"/><text class="av-type" x="624" y="930" text-anchor="end">Business Process</text><text class="av-name" x="538" y="943" text-anchor="middle"><tspan x="538" dy="0">Intake Claim Submission</tspan></text></a>
<a href="../elements/id-4e751104e0bd41a0bcf42dcd2ed62aac/" target="_top"><title>Validate Claim (Business Process)</title><rect x="447" y="956" width="182" height="25" rx="8" fill="#ffffb5" stroke="#8c8c64" stroke-width="1"/><text class="av-type" x="624" y="966" text-anchor="end">Business Process</text><text class="av-name" x="538" y="979" text-anchor="middle"><tspan x="538" dy="0">Validate Claim</tspan></text></a>
<a href="../elements/id-f917b8f7b57544cc8e2a16b643fd3491/" target="_top"><title>Adjudicate Claim (Business Process)</title><rect x="447" y="992" width="182" height="25" rx="8" fill="#ffffb5" stroke="#8c8c64" stroke-width="1"/><text class="av-type" x="624" y="1002" text-anchor="end">Business Process</text><text class="av-name" x="538" y="1015" text-anchor="middle"><tspan x="538" dy="0">Adjudicate Claim</tspan></text></a>
<a href="../elements/id-b7920194a9c2477984096758eba9ce56/" target="_top"><title>Disburse Payment (Business Process)</title><rect x="447" y="1028" width="182" height="25" rx="8" fill="#ffffb5" stroke="#8c8c64" stroke-width="1"/><text class="av-type" x="624" y="1038" text-anchor="end">Business Process</text><text class="av-name" x="538" y="1051" text-anchor="middle"><tspan x="538" dy="0">Disburse Payment</tspan></text></a>
<a href="../elements/id-99f0bf62371a4ae9a780fe1619fc7c23/" target="_top"><title>Generate Provider Statement (Business Process)</title><rect x="447" y="1064" width="182" height="37" rx="8" fill="#ffffb5" stroke="#8c8c64" stroke-width="1"/><text class="av-type" x="624" y="1074" text-anchor="end">Business Process</text><text class="av-name" x="538" y="1087" text-anchor="middle"><tspan x="538" dy="0">Generate Provider Statement</tspan></text></a>
<a href="../elements/id-d506745798bd403db318dab8ecfc2af1/" target="_top"><title>Compliance Monitoring (Business Function)</title><rect x="901" y="788" width="174" height="55" rx="8" fill="#ffffb5" stroke="#8c8c64" stroke-width="1"/><text class="av-type" x="1070" y="798" text-anchor="end">Business Function</text><text class="av-name" x="988" y="811" text-anchor="middle"><tspan x="988" dy="0">Compliance Monitoring</tspan></text></a>
<a href="../elements/id-f656e009234244faa6bd777cbc7939ed/" target="_top"><title>Public Reporting &amp; Disclosure (Business Function)</title><rect x="901" y="854" width="174" height="55" rx="8" fill="#ffffb5" stroke="#8c8c64" stroke-width="1"/><text class="av-type" x="1070" y="864" text-anchor="end">Business Function</text><text class="av-name" x="988" y="877" text-anchor="middle"><tspan x="988" dy="0">Public Reporting &amp;</tspan><tspan x="988" dy="13.75">Disclosure</tspan></text></a>
<a href="../elements/id-4abe42a3971f443cb9b6e4d790f53435/" target="_top"><title>Identity &amp; Access Management (Business Function)</title><rect x="1331" y="585" width="204" height="173" rx="8" fill="#ffffb5" stroke="#8c8c64" stroke-width="1"/><text class="av-type" x="1530" y="595" text-anchor="end">Business Function</text><text class="av-name" x="1433" y="608" text-anchor="middle"><tspan x="1433" dy="0">Identity &amp; Access Management</tspan></text></a>
<a href="../elements/id-8be12407955b4aff93332b08abad3cd3/" target="_top"><title>Authenticate User (Business Process)</title><rect x="1343" y="633" width="174" height="24" rx="8" fill="#ffffb5" stroke="#8c8c64" stroke-width="1"/><text class="av-type" x="1512" y="643" text-anchor="end">Business Process</text><text class="av-name" x="1430" y="656" text-anchor="middle"><tspan x="1430" dy="0">Authenticate User</tspan></text></a>
<a href="../elements/id-b2b0c34376db47e5bb95cf778c6c6060/" target="_top"><title>Authorize Transaction (Business Process)</title><rect x="1343" y="669" width="174" height="24" rx="8" fill="#ffffb5" stroke="#8c8c64" stroke-width="1"/><text class="av-type" x="1512" y="679" text-anchor="end">Business Process</text><text class="av-name" x="1430" y="692" text-anchor="middle"><tspan x="1430" dy="0">Authorize Transaction</tspan></text></a>
<a href="../elements/id-d2debcd3f1214045ba02ea1fd12422bf/" target="_top"><title>Digitally Sign Financial Event (Business Process)</title><rect x="1343" y="705" width="174" height="36" rx="8" fill="#ffffb5" stroke="#8c8c64" stroke-width="1"/><text class="av-type" x="1512" y="715" text-anchor="end">Business Process</text><text class="av-name" x="1430" y="728" text-anchor="middle"><tspan x="1430" dy="0">Digitally Sign Financial…</tspan></text></a>
<a href="../elements/id-7685e8241cbc40dc87a6b51494f56860/" target="_top"><title>Fraud Detection &amp; Prevention (Business Function)</title><rect x="1346" y="788" width="174" height="55" rx="8" fill="#ffffb5" stroke="#8c8c64" stroke-width="1"/><text class="av-type" x="1515" y="798" text-anchor="end">Business Function</text><text class="av-name" x="1433" y="811" text-anchor="middle"><tspan x="1433" dy="0">Fraud Detection &amp;</tspan><tspan x="1433" dy="13.75">Prevention</tspan></text></a>
<a href="../elements/id-f26f6b68b1504313942ae5b0accfcc0d/" target="_top"><title>Security Operations &amp; Incident Response (Business Function)</title><rect x="1346" y="854" width="174" height="55" rx="8" fill="#ffffb5" stroke="#8c8c64" stroke-width="1"/><text class="av-type" x="1515" y="864" text-anchor="end">Business Function</text><text class="av-name" x="1433" y="877" text-anchor="middle"><tspan x="1433" dy="0">Security Operations &amp;</tspan><tspan x="1433" dy="13.75">Incident Response</tspan></text></a>
<a href="../elements/id-85caaee5dcac48c387fce44b71296046/" target="_top"><title>Workflow &amp; Process Orchestration (Business Function)</title><rect x="1559" y="585" width="204" height="209" rx="8" fill="#ffffb5" stroke="#8c8c64" stroke-width="1"/><text class="av-type" x="1758" y="595" text-anchor="end">Business Function</text><text class="av-name" x="1661" y="608" text-anchor="middle"><tspan x="1661" dy="0">Workflow &amp; Process</tspan><tspan x="1661" dy="13.75">Orchestration</tspan></text></a>
<a href="../elements/id-6b9bdb147b9b43119367921d26c22f01/" target="_top"><title>Orchestrate Workflow (Business Process)</title><rect x="1571" y="633" width="174" height="24" rx="8" fill="#ffffb5" stroke="#8c8c64" stroke-width="1"/><text class="av-type" x="1740" y="643" text-anchor="end">Business Process</text><text class="av-name" x="1658" y="656" text-anchor="middle"><tspan x="1658" dy="0">Orchestrate Workflow</tspan></text></a>
<a href="../elements/id-a6c76e056e504be6a74b3ea07745d2f0/" target="_top"><title>Execute Automated Task (RPA) (Business Process)</title><rect x="1571" y="669" width="174" height="36" rx="8" fill="#ffffb5" stroke="#8c8c64" stroke-width="1"/><text class="av-type" x="1740" y="679" text-anchor="end">Business Process</text><text class="av-name" x="1658" y="692" text-anchor="middle"><tspan x="1658" dy="0">Execute Automated Task…</tspan></text></a>
<a href="../elements/id-8133ce53b9374c08afdf73cb8c688cdb/" target="_top"><title>Route Task Queue (Business Process)</title><rect x="1571" y="717" width="174" height="24" rx="8" fill="#ffffb5" stroke="#8c8c64" stroke-width="1"/><text class="av-type" x="1740" y="727" text-anchor="end">Business Process</text><text class="av-name" x="1658" y="740" text-anchor="middle"><tspan x="1658" dy="0">Route Task Queue</tspan></text></a>
<a href="../elements/id-c9fe4a7f8e95434589ba8a3675613ba9/" target="_top"><title>Notify Stakeholders (Business Process)</title><rect x="1571" y="753" width="174" height="24" rx="8" fill="#ffffb5" stroke="#8c8c64" stroke-width="1"/><text class="av-type" x="1740" y="763" text-anchor="end">Business Process</text><text class="av-name" x="1658" y="776" text-anchor="middle"><tspan x="1658" dy="0">Notify Stakeholders</tspan></text></a>
<a href="../elements/id-24319c02054549bea6203f6197bb5ce1/" target="_top"><title>Automation Management (Business Function)</title><rect x="1574" y="818" width="174" height="55" rx="8" fill="#ffffb5" stroke="#8c8c64" stroke-width="1"/><text class="av-type" x="1743" y="828" text-anchor="end">Business Function</text><text class="av-name" x="1661" y="841" text-anchor="middle"><tspan x="1661" dy="0">Automation Management</tspan></text></a>
<a href="../elements/id-ad19bb1a1481429fa5f772661c093dd2/" target="_top"><title>SLA &amp; Performance Management (Business Function)</title><rect x="1574" y="888" width="174" height="55" rx="8" fill="#ffffb5" stroke="#8c8c64" stroke-width="1"/><text class="av-type" x="1743" y="898" text-anchor="end">Business Function</text><text class="av-name" x="1661" y="911" text-anchor="middle"><tspan x="1661" dy="0">SLA &amp; Performance</tspan><tspan x="1661" dy="13.75">Management</tspan></text></a>
<a href="../relationships/id-9bf9dd87f9c743aab05a18f530df6932/" target="_top"><title>Composition</title><path d="M405 301.9 L750.6 243" fill="none" stroke="#333" stroke-width="1.2" marker-start="url(#diamond-filled)"/><path d="M405 301.9 L750.6 243" fill="none" stroke="transparent" stroke-width="8"/></a>
<a href="../relationships/id-68033e22f4c24598a0eb5357a7edf7bf/" target="_top"><title>Composition</title><path d="M629 293.4 L827.2 243" fill="none" stroke="#333" stroke-width="1.2" marker-start="url(#diamond-filled)"/><path d="M629 293.4 L827.2 243" fill="none" stroke="transparent" stroke-width="8"/></a>
<a href="../relationships/id-94f96f9284d146e6851f2153d3613697/" target="_top"><title>Composition</title><path d="M825 284 L905.2 243" fill="none" stroke="#333" stroke-width="1.2" marker-start="url(#diamond-filled)"/><path d="M825 284 L905.2 243" fill="none" stroke="transparent" stroke-width="8"/></a>
<a href="../relationships/id-f0867ed5656146f4bc3bcfe78d5562f7/" target="_top"><title>Composition</title><path d="M983.9 284 L983.2 243" fill="none" stroke="#333" stroke-width="1.2" marker-start="url(#diamond-filled)"/><path d="M983.9 284 L983.2 243" fill="none" stroke="transparent" stroke-width="8"/></a>
<a href="../relationships/id-5754a4cfbb344403bd1d7f38b004a00d/" target="_top"><title>Triggering</title><path d="M405 498.5 L435 498.5" fill="none" stroke="#333" stroke-width="1.2" marker-end="url(#arrow-filled)"/><path d="M405 498.5 L435 498.5" fill="none" stroke="transparent" stroke-width="8"/></a>
<a href="../relationships/id-539e511324f543cab0e3a5a243e8345d/" target="_top"><title>Triggering</title><path d="M629 498.5 L663 498.5" fill="none" stroke="#333" stroke-width="1.2" marker-end="url(#arrow-filled)"/><path d="M629 498.5 L663 498.5" fill="none" stroke="transparent" stroke-width="8"/></a>
<a href="../relationships/id-2dc4c0b5e7d34b2782f2c6c057f14f65/" target="_top"><title>Triggering</title><path d="M857 498.5 L887 498.5" fill="none" stroke="#333" stroke-width="1.2" marker-end="url(#arrow-filled)"/><path d="M857 498.5 L887 498.5" fill="none" stroke="transparent" stroke-width="8"/></a>
<a href="../relationships/id-3a138ba79dc24380a771054f9418930b/" target="_top"><title>Triggering</title><path d="M1081 498.5 L1115 498.5" fill="none" stroke="#333" stroke-width="1.2" marker-end="url(#arrow-filled)"/><path d="M1081 498.5 L1115 498.5" fill="none" stroke="transparent" stroke-width="8"/></a>
<a href="../relationships/id-d7a2932e61f4485a80bd2ead2bbec995/" target="_top"><title>Composition</title><path d="M537.5 650.5 L538 652.5" fill="none" stroke="#333" stroke-width="1.2" marker-start="url(#diamond-filled)"/><path d="M537.5 650.5 L538 652.5" fill="none" stroke="transparent" stroke-width="8"/></a>
<a href="../relationships/id-38eebae3f1cb469390f065ea635fc784/" target="_top"><title>Composition</title><path d="M538 834.5 L538 816" fill="none" stroke="#333" stroke-width="1.2" marker-start="url(#diamond-filled)"/><path d="M538 834.5 L538 816" fill="none" stroke="transparent" stroke-width="8"/></a>
<a href="../relationships/id-88e050108ae14c7fa0c7a9ddabda6b1e/" target="_top"><title>Composition</title><path d="M305.5 650.5 L306.6 669" fill="none" stroke="#333" stroke-width="1.2" marker-start="url(#diamond-filled)"/><path d="M305.5 650.5 L306.6 669" fill="none" stroke="transparent" stroke-width="8"/></a>
<a href="../relationships/id-dbd5643687414c3795c548c1c0072217/" target="_top"><title>Composition</title><path d="M764 734.5 L765.2 716" fill="none" stroke="#333" stroke-width="1.2" marker-start="url(#diamond-filled)"/><path d="M764 734.5 L765.2 716" fill="none" stroke="transparent" stroke-width="8"/></a>
<a href="../relationships/id-ba5207d41f404a57b3c4045474e30f9d/" target="_top"><title>Composition</title><path d="M764 650.5 L767.1 669" fill="none" stroke="#333" stroke-width="1.2" marker-start="url(#diamond-filled)"/><path d="M764 650.5 L767.1 669" fill="none" stroke="transparent" stroke-width="8"/></a>
<a href="../relationships/id-599751f8ba4a4d668f437a7f58bc61c0/" target="_top"><title>Composition</title><path d="M764 692.5 L766.8 680" fill="none" stroke="#333" stroke-width="1.2" marker-start="url(#diamond-filled)"/><path d="M764 692.5 L766.8 680" fill="none" stroke="transparent" stroke-width="8"/></a>
<a href="../relationships/id-36143894858a4081a1c6266bbdd199c5/" target="_top"><title>Composition</title><path d="M986 644 L987.2 656" fill="none" stroke="#333" stroke-width="1.2" marker-start="url(#diamond-filled)"/><path d="M986 644 L987.2 656" fill="none" stroke="transparent" stroke-width="8"/></a>
<a href="../relationships/id-33bd4c1194fb4935a4ac5359920b09bc/" target="_top"><title>Composition</title><path d="M986 686 L989 674.5" fill="none" stroke="#333" stroke-width="1.2" marker-start="url(#diamond-filled)"/><path d="M986 686 L989 674.5" fill="none" stroke="transparent" stroke-width="8"/></a>
<a href="../relationships/id-1c0b09589a8a4c2c89d764352651b525/" target="_top"><title>Composition</title><path d="M986 734 L986.9 716" fill="none" stroke="#333" stroke-width="1.2" marker-start="url(#diamond-filled)"/><path d="M986 734 L986.9 716" fill="none" stroke="transparent" stroke-width="8"/></a>
<a href="../relationships/id-05f294d176b2461198ba5843f4e3eadd/" target="_top"><title>Triggering</title><path d="M1308 498.5 L1340 498.5" fill="none" stroke="#333" stroke-width="1.2" marker-end="url(#arrow-filled)"/><path d="M1308 498.5 L1340 498.5" fill="none" stroke="transparent" stroke-width="8"/></a>
<a href="../relationships/id-d7eb0be1fc5c42789eed5cab71e6c813/" target="_top"><title>Composition</title><path d="M1209 650 L1210.7 668" fill="none" stroke="#333" stroke-width="1.2" marker-start="url(#diamond-filled)"/><path d="M1209 650 L1210.7 668" fill="none" stroke="transparent" stroke-width="8"/></a>
<a href="../relationships/id-cb6c49869f98493cbe13fb91447973e9/" target="_top"><title>Composition</title><path d="M1209 698 L1212 682.5" fill="none" stroke="#333" stroke-width="1.2" marker-start="url(#diamond-filled)"/><path d="M1209 698 L1212 682.5" fill="none" stroke="transparent" stroke-width="8"/></a>
<a href="../relationships/id-31f1b30ff89e4eba96f0c4fb764d6f2a/" target="_top"><title>Composition</title><path d="M1209 746 L1209.9 728" fill="none" stroke="#333" stroke-width="1.2" marker-start="url(#diamond-filled)"/><path d="M1209 746 L1209.9 728" fill="none" stroke="transparent" stroke-width="8"/></a>
<a href="../relationships/id-7b4c16248d2a4445b0cb5be69ff52857/" target="_top"><title>Composition</title><path d="M1139.3 284 L1059.4 243" fill="none" stroke="#333" stroke-width="1.2" marker-start="url(#diamond-filled)"/><path d="M1139.3 284 L1059.4 243" fill="none" stroke="transparent" stroke-width="8"/></a>
<a href="../relationships/id-1c409fe2827b4413bf7edd2dbf878a3c/" target="_top"><title>Composition</title><path d="M1332 293.2 L1136.4 243" fill="none" stroke="#333" stroke-width="1.2" marker-start="url(#diamond-filled)"/><path d="M1332 293.2 L1136.4 243" fill="none" stroke="transparent" stroke-width="8"/></a>
<a href="../relationships/id-a4fda746099e4831bbb77ef1cad019cc/" target="_top"><title>Composition</title><path d="M1560 301.9 L1214.4 243" fill="none" stroke="#333" stroke-width="1.2" marker-start="url(#diamond-filled)"/><path d="M1560 301.9 L1214.4 243" fill="none" stroke="transparent" stroke-width="8"/></a>
<a href="../relationships/id-a35675b13a414ec88384826855b69561/" target="_top"><title>Triggering</title><path d="M1533 498.5 L1564 498.5" fill="none" stroke="#333" stroke-width="1.2" marker-end="url(#arrow-filled)"/><path d="M1533 498.5 L1564 498.5" fill="none" stroke="transparent" stroke-width="8"/></a>
<a href="../relationships/id-81cfaa5ae61541b78ba66f9c9d3dbfcd/" target="_top"><title>Composition</title><path d="M538 968.5 L538 981" fill="none" stroke="#333" stroke-width="1.2" marker-start="url(#diamond-filled)"/><path d="M538 968.5 L538 981" fill="none" stroke="transparent" stroke-width="8"/></a>
<a href="../relationships/id-cbe0da3e0ed94289b08c04f55a91cc59/" target="_top"><title>Composition</title><path d="M538 1004.5 L538 994.5" fill="none" stroke="#333" stroke-width="1.2" marker-start="url(#diamond-filled)"/><path d="M538 1004.5 L538 994.5" fill="none" stroke="transparent" stroke-width="8"/></a>
<a href="../relationships/id-6618b0cf4beb4e7fa5933f2e887224f0/" target="_top"><title>Composition</title><path d="M538 1040.5 L538 1028" fill="none" stroke="#333" stroke-width="1.2" marker-start="url(#diamond-filled)"/><path d="M538 1040.5 L538 1028" fill="none" stroke="transparent" stroke-width="8"/></a>
<a href="../relationships/id-07dcac57f25a40999e7670aabc656337/" target="_top"><title>Composition</title><path d="M538 1082.5 L538 1064" fill="none" stroke="#333" stroke-width="1.2" marker-start="url(#diamond-filled)"/><path d="M538 1082.5 L538 1064" fill="none" stroke="transparent" stroke-width="8"/></a>
<a href="../relationships/id-ab4a238759e04dd1b03068070fd5526a/" target="_top"><title>Composition</title><path d="M1430 681 L1433 671.5" fill="none" stroke="#333" stroke-width="1.2" marker-start="url(#diamond-filled)"/><path d="M1430 681 L1433 671.5" fill="none" stroke="transparent" stroke-width="8"/></a>
<a href="../relationships/id-7972312585fa47e7a19a98e102105fce/" target="_top"><title>Composition</title><path d="M1430 723 L1431 705" fill="none" stroke="#333" stroke-width="1.2" marker-start="url(#diamond-filled)"/><path d="M1430 723 L1431 705" fill="none" stroke="transparent" stroke-width="8"/></a>
<a href="../relationships/id-026a01565f9144688218257ff006c7d7/" target="_top"><title>Composition</title><path d="M1430 645 L1431.4 657" fill="none" stroke="#333" stroke-width="1.2" marker-start="url(#diamond-filled)"/><path d="M1430 645 L1431.4 657" fill="none" stroke="transparent" stroke-width="8"/></a>
<a href="../relationships/id-b6b9fdd3bd80470a95f91acdd9e096f0/" target="_top"><title>Composition</title><path d="M1658 645 L1658.8 657" fill="none" stroke="#333" stroke-width="1.2" marker-start="url(#diamond-filled)"/><path d="M1658 645 L1658.8 657" fill="none" stroke="transparent" stroke-width="8"/></a>
<a href="../relationships/id-3bec706e03a54bcb8c1bed891ecbebe3/" target="_top"><title>Composition</title><path d="M1658 729 L1658.9 717" fill="none" stroke="#333" stroke-width="1.2" marker-start="url(#diamond-filled)"/><path d="M1658 729 L1658.9 717" fill="none" stroke="transparent" stroke-width="8"/></a>
<a href="../relationships/id-40937210327c421cb19702f76a87d0c0/" target="_top"><title>Composition</title><path d="M1658 687 L1661 689.5" fill="none" stroke="#333" stroke-width="1.2" marker-start="url(#diamond-filled)"/><path d="M1658 687 L1661 689.5" fill="none" stroke="transparent" stroke-width="8"/></a>
<a href="../relationships/id-79660bfc59644904b55f40db3a4cceef/" target="_top"><title>Composition</title><path d="M1658 765 L1658.5 753" fill="none" stroke="#333" stroke-width="1.2" marker-start="url(#diamond-filled)"/><path d="M1658 765 L1658.5 753" fill="none" stroke="transparent" stroke-width="8"/></a></svg>
