<svg xmlns="http://www.w3.org/2000/svg" viewBox="115 76 1121 527" width="1121" height="527" role="img" aria-labelledby="av-title"><title id="av-title">4.1 Stakeholder &amp; Motivational Viewpoint — WHO Models</title><style>
.av-name{font:600 11px system-ui,-apple-system,"Segoe UI",sans-serif;fill:#111}
.av-type{font:italic 8px system-ui,sans-serif;fill:#555}
.av-group{font:600 11px system-ui,sans-serif;fill:#333}
.av-note{font:10px system-ui,sans-serif;fill:#222}
.av-rel{font:9px system-ui,sans-serif;fill:#333;paint-order:stroke;stroke:#fff;stroke-width:3px}
a:hover rect,a:hover polygon,a:focus rect,a:focus polygon{stroke:#06c;stroke-width:2.5}
</style><defs>
<marker id="arrow-open" viewBox="0 0 12 12" refX="11" refY="6" markerWidth="11" markerHeight="11" orient="auto-start-reverse" markerUnits="userSpaceOnUse"><path d="M1 1 L11 6 L1 11" fill="none" stroke="#333" stroke-width="1.3"/></marker>
<marker id="arrow-filled" viewBox="0 0 12 12" refX="11" refY="6" markerWidth="11" markerHeight="11" orient="auto-start-reverse" markerUnits="userSpaceOnUse"><path d="M1 1 L11 6 L1 11 Z" fill="#333"/></marker>
<marker id="arrow-small" viewBox="0 0 10 10" refX="9" refY="5" markerWidth="8" markerHeight="8" orient="auto-start-reverse" markerUnits="userSpaceOnUse"><path d="M1 1 L9 5 L1 9" fill="none" stroke="#333" stroke-width="1.2"/></marker>
<marker id="triangle-hollow" viewBox="0 0 14 14" refX="13" refY="7" markerWidth="13" markerHeight="13" orient="auto-start-reverse" markerUnits="userSpaceOnUse"><path d="M1 1 L13 7 L1 13 Z" fill="#fff" stroke="#333" stroke-width="1.2"/></marker>
<marker id="diamond-filled" viewBox="0 0 16 10" refX="1" refY="5" markerWidth="16" markerHeight="10" orient="auto-start-reverse" markerUnits="userSpaceOnUse"><path d="M1 5 L8 1 L15 5 L8 9 Z" fill="#333"/></marker>
<marker id="diamond-hollow" viewBox="0 0 16 10" refX="1" refY="5" markerWidth="16" markerHeight="10" orient="auto-start-reverse" markerUnits="userSpaceOnUse"><path d="M1 5 L8 1 L15 5 L8 9 Z" fill="#fff" stroke="#333" stroke-width="1.2"/></marker>
<marker id="dot" viewBox="0 0 8 8" refX="4" refY="4" markerWidth="7" markerHeight="7" orient="auto" markerUnits="userSpaceOnUse"><circle cx="4" cy="4" r="3.2" fill="#333"/></marker>
<pattern id="missing" width="8" height="8" patternUnits="userSpaceOnUse" patternTransform="rotate(45)"><rect width="8" height="8" fill="#fff"/><line x1="0" y1="0" x2="0" y2="8" stroke="#d33" stroke-width="2"/></pattern>
</defs><rect x="115" y="76" width="1121" height="527" fill="#fff"/><g class="av-g"><rect x="135" y="96" width="1081" height="421" fill="#f2f2f2" fill-opacity=".55" stroke="#888"/><rect x="135" y="96" width="1081" height="19.75" fill="#f2f2f2" stroke="#888"/><text class="av-group" x="141" y="110">Health Workforce Motivational</text></g>
<a href="../elements/id-72c23190981049d9843ea460971cf55f/" target="_top"><title>Health Workers (Stakeholder)</title><polygon points="169,132 269,132 279,142 279,177 269,187 169,187 159,177 159,142" fill="#ccccff" stroke="#70708c" stroke-width="1"/><text class="av-type" x="270" y="142" text-anchor="end">Stakeholder</text><text class="av-name" x="219" y="155" text-anchor="middle"><tspan x="219" dy="0">Health Workers</tspan></text></a>
<a href="../elements/id-e259f944473c44e5babd6bf90b7c7ee0/" target="_top"><title>Health Worker Digital Credential/ CV (Outcome)</title><polygon points="457,372 628,372 638,382 638,417 628,427 457,427 447,417 447,382" fill="#ccccff" stroke="#70708c" stroke-width="1"/><text class="av-type" x="629" y="382" text-anchor="end">Outcome</text><text class="av-name" x="542.5" y="395" text-anchor="middle"><tspan x="542.5" dy="0">Health Worker Digital</tspan><tspan x="542.5" dy="13.75">Credential/ CV</tspan></text></a>
<a href="../elements/id-684ffd14f94345f9b36290cb1a7fae95/" target="_top"><title>Licensing Bodies (Stakeholder)</title><polygon points="349,132 449,132 459,142 459,177 449,187 349,187 339,177 339,142" fill="#ccccff" stroke="#70708c" stroke-width="1"/><text class="av-type" x="450" y="142" text-anchor="end">Stakeholder</text><text class="av-name" x="399" y="155" text-anchor="middle"><tspan x="399" dy="0">Licensing Bodies</tspan></text></a>
<a href="../elements/id-3f4cd65500ed4b74974cdba38357f48d/" target="_top"><title>Academic &amp; Training Institutions (Stakeholder)</title><polygon points="517,132 617,132 627,142 627,177 617,187 517,187 507,177 507,142" fill="#ccccff" stroke="#70708c" stroke-width="1"/><text class="av-type" x="618" y="142" text-anchor="end">Stakeholder</text><text class="av-name" x="567" y="155" text-anchor="middle"><tspan x="567" dy="0">Academic &amp;</tspan><tspan x="567" dy="13.75">Training…</tspan></text></a>
<a href="../elements/id-8779fce8bfa74bcd82d4b72924822d58/" target="_top"><title>Ministry of Health (Stakeholder)</title><polygon points="697,132 797,132 807,142 807,177 797,187 697,187 687,177 687,142" fill="#ccccff" stroke="#70708c" stroke-width="1"/><text class="av-type" x="798" y="142" text-anchor="end">Stakeholder</text><text class="av-name" x="747" y="155" text-anchor="middle"><tspan x="747" dy="0">Ministry of</tspan><tspan x="747" dy="13.75">Health</tspan></text></a>
<a href="../elements/id-adac4c1e354249cca013c1241fea0d83/" target="_top"><title>Health Care Institutions (Stakeholder)</title><polygon points="878,132 978,132 988,142 988,177 978,187 878,187 868,177 868,142" fill="#ccccff" stroke="#70708c" stroke-width="1"/><text class="av-type" x="979" y="142" text-anchor="end">Stakeholder</text><text class="av-name" x="928" y="155" text-anchor="middle"><tspan x="928" dy="0">Health Care</tspan><tspan x="928" dy="13.75">Institutions</tspan></text></a>
<a href="../elements/id-6ad36cbd07b74e1d8e89466857289b7b/" target="_top"><title>Patients (Stakeholder)</title><polygon points="1057,132 1157,132 1167,142 1167,177 1157,187 1057,187 1047,177 1047,142" fill="#ccccff" stroke="#70708c" stroke-width="1"/><text class="av-type" x="1158" y="142" text-anchor="end">Stakeholder</text><text class="av-name" x="1107" y="155" text-anchor="middle"><tspan x="1107" dy="0">Patients</tspan></text></a>
<a href="../elements/id-5816da263b764be48b9b1364c4a615e9/" target="_top"><title>Public Trust &amp; Professional Integrity, Verification (Value)</title><polygon points="613,252 750,252 760,262 760,297 750,307 613,307 603,297 603,262" fill="#ccccff" stroke="#70708c" stroke-width="1"/><text class="av-type" x="751" y="262" text-anchor="end">Value</text><text class="av-name" x="681.5" y="275" text-anchor="middle"><tspan x="681.5" dy="0">Public Trust &amp;</tspan><tspan x="681.5" dy="13.75">Professional Integrity…</tspan></text></a>
<a href="../elements/id-20be7681d9c74042a0c873381c64b0d3/" target="_top"><title>National Health worker Training and Competency Framework Catalogue (Outcome)</title><polygon points="229,372 400,372 410,382 410,417 400,427 229,427 219,417 219,382" fill="#ccccff" stroke="#70708c" stroke-width="1"/><text class="av-type" x="401" y="382" text-anchor="end">Outcome</text><text class="av-name" x="314.5" y="395" text-anchor="middle"><tspan x="314.5" dy="0">National Health worker</tspan><tspan x="314.5" dy="13.75">Training and Competency…</tspan></text></a>
<a href="../elements/id-69a370da6e1e41cdaecc86e56d60969b/" target="_top"><title>Health Worker Training and Attendance Verification (Outcome)</title><polygon points="697,372 868,372 878,382 878,417 868,427 697,427 687,417 687,382" fill="#ccccff" stroke="#70708c" stroke-width="1"/><text class="av-type" x="869" y="382" text-anchor="end">Outcome</text><text class="av-name" x="782.5" y="395" text-anchor="middle"><tspan x="782.5" dy="0">Health Worker Training and</tspan><tspan x="782.5" dy="13.75">Attendance Verification</tspan></text></a>
<a href="../elements/id-e5cc3fd583734d32a6d7b6aed15a70f9/" target="_top"><title>Health Skills Gap and Training Analytics (Outcome)</title><polygon points="937,372 1108,372 1118,382 1118,417 1108,427 937,427 927,417 927,382" fill="#ccccff" stroke="#70708c" stroke-width="1"/><text class="av-type" x="1109" y="382" text-anchor="end">Outcome</text><text class="av-name" x="1022.5" y="395" text-anchor="middle"><tspan x="1022.5" dy="0">Health Skills Gap and</tspan><tspan x="1022.5" dy="13.75">Training Analytics</tspan></text></a>
<a href="../elements/id-90444ad627924a0f8a0e22139c8755aa/" target="_top"><title>Effective, responsible adoption of innovation (Value)</title><polygon points="997,252 1146,252 1156,262 1156,297 1146,307 997,307 987,297 987,262" fill="#ccccff" stroke="#70708c" stroke-width="1"/><text class="av-type" x="1147" y="262" text-anchor="end">Value</text><text class="av-name" x="1071.5" y="275" text-anchor="middle"><tspan x="1071.5" dy="0">Effective, responsible</tspan><tspan x="1071.5" dy="13.75">adoption of innovation</tspan></text></a>
<a href="../elements/id-c72e35ac77c549728c9897ec9c99ab42/" target="_top"><title>Continuous professional development and workforce adaptability (Value)</title><polygon points="407,252 569,252 579,262 579,297 569,307 407,307 397,297 397,262" fill="#ccccff" stroke="#70708c" stroke-width="1"/><text class="av-type" x="570" y="262" text-anchor="end">Value</text><text class="av-name" x="488" y="275" text-anchor="middle"><tspan x="488" dy="0">Continuous professional</tspan><tspan x="488" dy="13.75">development and workforce…</tspan></text></a>
<a href="../elements/id-b3c44096d22e45f1bfe720eb788025c2/" target="_top"><title>Raising overall competency of health workers; tracking professional development (Value)</title><polygon points="181,252 366,252 376,262 376,297 366,307 181,307 171,297 171,262" fill="#ccccff" stroke="#70708c" stroke-width="1"/><text class="av-type" x="367" y="262" text-anchor="end">Value</text><text class="av-name" x="273.5" y="275" text-anchor="middle"><tspan x="273.5" dy="0">Raising overall competency of</tspan><tspan x="273.5" dy="13.75">health workers; tracking…</tspan></text></a>
<a href="../elements/id-a7bb5ea6a0a64d0fbb95c70712c24e60/" target="_top"><title>Adaptable health workforce with the skills to safely use new technologies and meet emerging health demands (Value)</title><polygon points="789,252 954,252 964,262 964,297 954,307 789,307 779,297 779,262" fill="#ccccff" stroke="#70708c" stroke-width="1"/><text class="av-type" x="955" y="262" text-anchor="end">Value</text><text class="av-name" x="871.5" y="275" text-anchor="middle"><tspan x="871.5" dy="0">Adaptable health workforce</tspan><tspan x="871.5" dy="13.75">with the skills to safely…</tspan></text></a>
<a href="../elements/id-dc0bc2a2f4174df28e44a08870ab964f/" target="_top"><title>Continuous Growth by enabling capacity building and fostering career development (Goal)</title><polygon points="145,528 1206,528 1216,538 1216,573 1206,583 145,583 135,573 135,538" fill="#ccccff" stroke="#70708c" stroke-width="1"/><text class="av-type" x="1207" y="538" text-anchor="end">Goal</text><text class="av-name" x="675.5" y="551" text-anchor="middle"><tspan x="675.5" dy="0">Continuous Growth by enabling capacity building and fostering career development</tspan></text></a>
<a href="../relationships/id-70fb724d8acf44d5bdf9950f6e0b947f/" target="_top"><title>Association</title><path d="M279 186.3 L426.4 252" fill="none" stroke="#333" stroke-width="1.2"/><path d="M279 186.3 L426.4 252" fill="none" stroke="transparent" stroke-width="8"/></a>
<a href="../relationships/id-cfe34172d39f4a67a1856f4028d0c160/" target="_top"><title>Realization</title><path d="M565.9 427 L652.1 528" fill="none" stroke="#333" stroke-width="1.2" stroke-dasharray="6 4" marker-end="url(#triangle-hollow)"/><path d="M565.9 427 L652.1 528" fill="none" stroke="transparent" stroke-width="8"/></a>
<a href="../relationships/id-5a7e325cf91b41fd908ba5ed30a5d03d/" target="_top"><title>Association</title><path d="M419.4 187 L467.6 252" fill="none" stroke="#333" stroke-width="1.2"/><path d="M419.4 187 L467.6 252" fill="none" stroke="transparent" stroke-width="8"/></a>
<a href="../relationships/id-a6422b0438d241f8a8a2c4fe8bf06204/" target="_top"><title>Association</title><path d="M459 185 L616.8 252" fill="none" stroke="#333" stroke-width="1.2"/><path d="M459 185 L616.8 252" fill="none" stroke="transparent" stroke-width="8"/></a>
<a href="../relationships/id-64c2dab8f772480e977585465cd44db3/" target="_top"><title>Association</title><path d="M370.2 187 L302.3 252" fill="none" stroke="#333" stroke-width="1.2"/><path d="M370.2 187 L302.3 252" fill="none" stroke="transparent" stroke-width="8"/></a>
<a href="../relationships/id-8637b4d20c37404ba035f6b5532c50e9/" target="_top"><title>Association</title><path d="M548.9 187 L506.1 252" fill="none" stroke="#333" stroke-width="1.2"/><path d="M548.9 187 L506.1 252" fill="none" stroke="transparent" stroke-width="8"/></a>
<a href="../relationships/id-fd0db2c1dfb54744b7c731a0bb126d8e/" target="_top"><title>Association</title><path d="M627 173.8 L987 259.4" fill="none" stroke="#333" stroke-width="1.2"/><path d="M627 173.8 L987 259.4" fill="none" stroke="transparent" stroke-width="8"/></a>
<a href="../relationships/id-139216df3d764f75a52b6c0d200ab88e/" target="_top"><title>Association</title><path d="M627 183.1 L801.7 252" fill="none" stroke="#333" stroke-width="1.2"/><path d="M627 183.1 L801.7 252" fill="none" stroke="transparent" stroke-width="8"/></a>
<a href="../relationships/id-542db420e4a04d0884db892ed29d9916/" target="_top"><title>Association</title><path d="M807 181.7 L997.1 252" fill="none" stroke="#333" stroke-width="1.2"/><path d="M807 181.7 L997.1 252" fill="none" stroke="transparent" stroke-width="8"/></a>
<a href="../relationships/id-aed84e503a2840f3b2f18925e2dff369/" target="_top"><title>Association</title><path d="M687.6 187 L547.4 252" fill="none" stroke="#333" stroke-width="1.2"/><path d="M687.6 187 L547.4 252" fill="none" stroke="transparent" stroke-width="8"/></a>
<a href="../relationships/id-e8ba9093ca024b2caf1af55d279508ac/" target="_top"><title>Association</title><path d="M775.5 187 L843 252" fill="none" stroke="#333" stroke-width="1.2"/><path d="M775.5 187 L843 252" fill="none" stroke="transparent" stroke-width="8"/></a>
<a href="../relationships/id-63ad048803f84e58970cc1f292a9bbfd/" target="_top"><title>Association</title><path d="M871.5 187 L738 252" fill="none" stroke="#333" stroke-width="1.2"/><path d="M871.5 187 L738 252" fill="none" stroke="transparent" stroke-width="8"/></a>
<a href="../relationships/id-7ff4995070444c24a2d8d2357f878bae/" target="_top"><title>Association</title><path d="M868 175.9 L579 254.7" fill="none" stroke="#333" stroke-width="1.2"/><path d="M868 175.9 L579 254.7" fill="none" stroke="transparent" stroke-width="8"/></a>
<a href="../relationships/id-ad2ffadbf7eb482aba45658533824bc5/" target="_top"><title>Association</title><path d="M1098.9 187 L1079.6 252" fill="none" stroke="#333" stroke-width="1.2"/><path d="M1098.9 187 L1079.6 252" fill="none" stroke="transparent" stroke-width="8"/></a>
<a href="../relationships/id-ef8ba4c8365d48259ba99720bba1191a/" target="_top"><title>Influence</title><path d="M649.6 307 L574.4 372" fill="none" stroke="#333" stroke-width="1.2" stroke-dasharray="6 4" marker-end="url(#arrow-open)"/><path d="M649.6 307 L574.4 372" fill="none" stroke="transparent" stroke-width="8"/></a>
<a href="../relationships/id-8a2c8882797b44739eefdfbcae9ca10b/" target="_top"><title>Influence</title><path d="M704.6 307 L759.4 372" fill="none" stroke="#333" stroke-width="1.2" stroke-dasharray="6 4" marker-end="url(#arrow-open)"/><path d="M704.6 307 L759.4 372" fill="none" stroke="transparent" stroke-width="8"/></a>
<a href="../relationships/id-4e13487ad8084f34acdb0b17bec22ccf/" target="_top"><title>Realization</title><path d="M378.1 427 L611.9 528" fill="none" stroke="#333" stroke-width="1.2" stroke-dasharray="6 4" marker-end="url(#triangle-hollow)"/><path d="M378.1 427 L611.9 528" fill="none" stroke="transparent" stroke-width="8"/></a>
<a href="../relationships/id-d3d7c068a5be4451b17a7cb1b2fd1609/" target="_top"><title>Realization</title><path d="M763.6 427 L694.4 528" fill="none" stroke="#333" stroke-width="1.2" stroke-dasharray="6 4" marker-end="url(#triangle-hollow)"/><path d="M763.6 427 L694.4 528" fill="none" stroke="transparent" stroke-width="8"/></a>
<a href="../relationships/id-53576374f6d0487890622102bf924d09/" target="_top"><title>Realization</title><path d="M961.3 427 L736.7 528" fill="none" stroke="#333" stroke-width="1.2" stroke-dasharray="6 4" marker-end="url(#triangle-hollow)"/><path d="M961.3 427 L736.7 528" fill="none" stroke="transparent" stroke-width="8"/></a>
<a href="../relationships/id-f20f693826e04dafa0bc736d8646fa5f/" target="_top"><title>Influence</title><path d="M1060.3 307 L1033.7 372" fill="none" stroke="#333" stroke-width="1.2" stroke-dasharray="6 4" marker-end="url(#arrow-open)"/><path d="M1060.3 307 L1033.7 372" fill="none" stroke="transparent" stroke-width="8"/></a>
<a href="../relationships/id-33bd9e20eade4eb0bd19931284a3a6cd/" target="_top"><title>Influence</title><path d="M448.2 307 L354.3 372" fill="none" stroke="#333" stroke-width="1.2" stroke-dasharray="6 4" marker-end="url(#arrow-open)"/><path d="M448.2 307 L354.3 372" fill="none" stroke="transparent" stroke-width="8"/></a>
<a href="../relationships/id-f7ece556937b4e57bf45f6e44ab37eb7/" target="_top"><title>Influence</title><path d="M555.5 307 L715 372" fill="none" stroke="#333" stroke-width="1.2" stroke-dasharray="6 4" marker-end="url(#arrow-open)"/><path d="M555.5 307 L715 372" fill="none" stroke="transparent" stroke-width="8"/></a>
<a href="../relationships/id-05188720755043a6b7fd0d9d25b2b3a8/" target="_top"><title>Influence</title><path d="M579 299.9 L927 378.1" fill="none" stroke="#333" stroke-width="1.2" stroke-dasharray="6 4" marker-end="url(#arrow-open)"/><path d="M579 299.9 L927 378.1" fill="none" stroke="transparent" stroke-width="8"/></a>
<a href="../relationships/id-b96a0c51dd3f46bf9d356b324e188fe2/" target="_top"><title>Influence</title><path d="M282.9 307 L305.1 372" fill="none" stroke="#333" stroke-width="1.2" stroke-dasharray="6 4" marker-end="url(#arrow-open)"/><path d="M282.9 307 L305.1 372" fill="none" stroke="transparent" stroke-width="8"/></a>
<a href="../relationships/id-ac500f8355c9412b8414ef42ac178969/" target="_top"><title>Influence</title><path d="M335.1 307 L480.9 372" fill="none" stroke="#333" stroke-width="1.2" stroke-dasharray="6 4" marker-end="url(#arrow-open)"/><path d="M335.1 307 L480.9 372" fill="none" stroke="transparent" stroke-width="8"/></a>
<a href="../relationships/id-b5f77f65d4c044d8a18f559911200114/" target="_top"><title>Influence</title><path d="M376 303.7 L687 377" fill="none" stroke="#333" stroke-width="1.2" stroke-dasharray="6 4" marker-end="url(#arrow-open)"/><path d="M376 303.7 L687 377" fill="none" stroke="transparent" stroke-width="8"/></a>
<a href="../relationships/id-41671f4858de4caebcd0a3e52406c2d8/" target="_top"><title>Influence</title><path d="M906.1 307 L987.9 372" fill="none" stroke="#333" stroke-width="1.2" stroke-dasharray="6 4" marker-end="url(#arrow-open)"/><path d="M906.1 307 L987.9 372" fill="none" stroke="transparent" stroke-width="8"/></a></svg>
