<svg xmlns="http://www.w3.org/2000/svg" viewBox="182 84 1277 320" width="1277" height="320" role="img" aria-labelledby="av-title"><title id="av-title">ALL High Level - PHR — WHO Reference Architecture</title><style>
.av-name{font:600 11px system-ui,-apple-system,"Segoe UI",sans-serif;fill:#111}
.av-type{font:italic 8px system-ui,sans-serif;fill:#555}
.av-group{font:600 11px system-ui,sans-serif;fill:#333}
.av-note{font:10px system-ui,sans-serif;fill:#222}
.av-rel{font:9px system-ui,sans-serif;fill:#333;paint-order:stroke;stroke:#fff;stroke-width:3px}
a:hover rect,a:hover polygon,a:focus rect,a:focus polygon{stroke:#06c;stroke-width:2.5}
</style><defs>
<marker id="arrow-open" viewBox="0 0 12 12" refX="11" refY="6" markerWidth="11" markerHeight="11" orient="auto-start-reverse" markerUnits="userSpaceOnUse"><path d="M1 1 L11 6 L1 11" fill="none" stroke="#333" stroke-width="1.3"/></marker>
<marker id="arrow-filled" viewBox="0 0 12 12" refX="11" refY="6" markerWidth="11" markerHeight="11" orient="auto-start-reverse" markerUnits="userSpaceOnUse"><path d="M1 1 L11 6 L1 11 Z" fill="#333"/></marker>
<marker id="arrow-small" viewBox="0 0 10 10" refX="9" refY="5" markerWidth="8" markerHeight="8" orient="auto-start-reverse" markerUnits="userSpaceOnUse"><path d="M1 1 L9 5 L1 9" fill="none" stroke="#333" stroke-width="1.2"/></marker>
<marker id="triangle-hollow" viewBox="0 0 14 14" refX="13" refY="7" markerWidth="13" markerHeight="13" orient="auto-start-reverse" markerUnits="userSpaceOnUse"><path d="M1 1 L13 7 L1 13 Z" fill="#fff" stroke="#333" stroke-width="1.2"/></marker>
<marker id="diamond-filled" viewBox="0 0 16 10" refX="1" refY="5" markerWidth="16" markerHeight="10" orient="auto-start-reverse" markerUnits="userSpaceOnUse"><path d="M1 5 L8 1 L15 5 L8 9 Z" fill="#333"/></marker>
<marker id="diamond-hollow" viewBox="0 0 16 10" refX="1" refY="5" markerWidth="16" markerHeight="10" orient="auto-start-reverse" markerUnits="userSpaceOnUse"><path d="M1 5 L8 1 L15 5 L8 9 Z" fill="#fff" stroke="#333" stroke-width="1.2"/></marker>
<marker id="dot" viewBox="0 0 8 8" refX="4" refY="4" markerWidth="7" markerHeight="7" orient="auto" markerUnits="userSpaceOnUse"><circle cx="4" cy="4" r="3.2" fill="#333"/></marker>
<pattern id="missing" width="8" height="8" patternUnits="userSpaceOnUse" patternTransform="rotate(45)"><rect width="8" height="8" fill="#fff"/><line x1="0" y1="0" x2="0" y2="8" stroke="#d33" stroke-width="2"/></pattern>
</defs><rect x="182" y="84" width="1277" height="320" fill="#fff"/><g class="av-n"><polygon points="204,104 499,104 509,114 509,141 204,141" fill="#ffffff" stroke="#888"/><text class="av-note" x="210" y="119"><tspan x="210" dy="0">Trusted Personal Health Records&amp;#xD;</tspan></text></g>
<a href="../elements/id-486edcfed0be4583a1cace8de084ed05/" target="_top"><title>TPHR Goals (Grouping)</title><rect x="202" y="156" width="1237" height="228" fill="#ffffff" stroke="#8c8c8c" stroke-width="1"/><text class="av-type" x="1434" y="166" text-anchor="end">Grouping</text><text class="av-name" x="820.5" y="179" text-anchor="middle"><tspan x="820.5" dy="0">TPHR Goals</tspan></text></a>
<a href="../elements/id-b6bc801d5df44f6aa007fca9eb15807e/" target="_top"><title>Develop a secure and universally accessible system for issuing verifiable digital health records to individuals for their utilization as they seek care, following appropriate safeguards for privacy, security and consent (Goal)</title><polygon points="248,192 1392,192 1402,202 1402,243 1392,253 248,253 238,243 238,202" fill="#ccccff" stroke="#70708c" stroke-width="1"/><text class="av-type" x="1393" y="202" text-anchor="end">Goal</text><text class="av-name" x="820" y="215" text-anchor="middle"><tspan x="820" dy="0">Develop a secure and universally accessible system for issuing verifiable digital health records to individuals for their utilization as they seek care, following appropriate safeguards</tspan><tspan x="820" dy="13.75">for privacy, security and consent</tspan></text></a>
<a href="../elements/id-c0715bcb11cf4837ad93493ca9ae10ac/" target="_top"><title>Support interoperability across providers, facilities, and jurisdictions (Goal)</title><polygon points="1148,300 1381,300 1391,310 1391,351 1381,361 1148,361 1138,351 1138,310" fill="#ccccff" stroke="#70708c" stroke-width="1"/><text class="av-type" x="1382" y="310" text-anchor="end">Goal</text><text class="av-name" x="1264.5" y="323" text-anchor="middle"><tspan x="1264.5" dy="0">Support interoperability across</tspan><tspan x="1264.5" dy="13.75">providers, facilities, and</tspan><tspan x="1264.5" dy="13.75">jurisdictions</tspan></text></a>
<a href="../elements/id-cccee06a16fc47f8836e00914d6d739b/" target="_top"><title>Establish a secure, universally accessible, verifiable health record for every individual (Goal)</title><polygon points="248,300 481,300 491,310 491,351 481,361 248,361 238,351 238,310" fill="#ccccff" stroke="#70708c" stroke-width="1"/><text class="av-type" x="482" y="310" text-anchor="end">Goal</text><text class="av-name" x="364.5" y="323" text-anchor="middle"><tspan x="364.5" dy="0">Establish a secure, universally</tspan><tspan x="364.5" dy="13.75">accessible, verifiable health record</tspan><tspan x="364.5" dy="13.75">for every individual</tspan></text></a>
<a href="../elements/id-abb133e470654aa384d6b646525d7681/" target="_top"><title>Enable patient control and consent-based sharing of health information (Goal)</title><polygon points="524,300 791,300 801,310 801,351 791,361 524,361 514,351 514,310" fill="#ccccff" stroke="#70708c" stroke-width="1"/><text class="av-type" x="792" y="310" text-anchor="end">Goal</text><text class="av-name" x="657.5" y="323" text-anchor="middle"><tspan x="657.5" dy="0">Enable patient control and consent-based</tspan><tspan x="657.5" dy="13.75">sharing of health information</tspan></text></a>
<a href="../elements/id-4b19a6ae6e754c0ab3dfca7e8ae397a1/" target="_top"><title>Ensure trust, security, and privacy in all transactions (Goal)</title><polygon points="824,300 1105,300 1115,310 1115,351 1105,361 824,361 814,351 814,310" fill="#ccccff" stroke="#70708c" stroke-width="1"/><text class="av-type" x="1106" y="310" text-anchor="end">Goal</text><text class="av-name" x="964.5" y="323" text-anchor="middle"><tspan x="964.5" dy="0">Ensure trust, security, and privacy in all</tspan><tspan x="964.5" dy="13.75">transactions</tspan></text></a>
<a href="../relationships/id-340dba35a3144b78bb60f3c73d82dfe1/" target="_top"><title>Composition</title><path d="M364.5 330.5 L491 313.7" fill="none" stroke="#333" stroke-width="1.2" marker-start="url(#diamond-filled)"/><path d="M364.5 330.5 L491 313.7" fill="none" stroke="transparent" stroke-width="8"/></a>
<a href="../relationships/id-adb5aa20d73849d08986b6c0f033020a/" target="_top"><title>Composition</title><path d="M1264.5 330.5 L1138 313.3" fill="none" stroke="#333" stroke-width="1.2" marker-start="url(#diamond-filled)"/><path d="M1264.5 330.5 L1138 313.3" fill="none" stroke="transparent" stroke-width="8"/></a>
<a href="../relationships/id-ffe4bf8dd00d40ed84c5d3c699a692e9/" target="_top"><title>Composition</title><path d="M820 222.5 L820.3 253" fill="none" stroke="#333" stroke-width="1.2" marker-start="url(#diamond-filled)"/><path d="M820 222.5 L820.3 253" fill="none" stroke="transparent" stroke-width="8"/></a>
<a href="../relationships/id-c21bdb5631fb4377956c384933565b93/" target="_top"><title>Composition</title><path d="M657.5 330.5 L739.7 300" fill="none" stroke="#333" stroke-width="1.2" marker-start="url(#diamond-filled)"/><path d="M657.5 330.5 L739.7 300" fill="none" stroke="transparent" stroke-width="8"/></a>
<a href="../relationships/id-969a15b19c13400d8aa09343dde7f90f/" target="_top"><title>Composition</title><path d="M964.5 330.5 L891.9 300" fill="none" stroke="#333" stroke-width="1.2" marker-start="url(#diamond-filled)"/><path d="M964.5 330.5 L891.9 300" fill="none" stroke="transparent" stroke-width="8"/></a>
<a href="../relationships/id-228bf34cf6b543538ea1ac186cdbdf5e/" target="_top"><title>Composition</title><path d="M691.4 253 L491 300.5" fill="none" stroke="#333" stroke-width="1.2" marker-start="url(#diamond-filled)"/><path d="M691.4 253 L491 300.5" fill="none" stroke="transparent" stroke-width="8"/></a>
<a href="../relationships/id-eb09c476347c43268606e550826a30ca/" target="_top"><title>Composition</title><path d="M945.5 253 L1139 300" fill="none" stroke="#333" stroke-width="1.2" marker-start="url(#diamond-filled)"/><path d="M945.5 253 L1139 300" fill="none" stroke="transparent" stroke-width="8"/></a>
<a href="../relationships/id-3cad1350df584fec9bc8c8bfa6726c60/" target="_top"><title>Composition</title><path d="M774.1 253 L703.4 300" fill="none" stroke="#333" stroke-width="1.2" marker-start="url(#diamond-filled)"/><path d="M774.1 253 L703.4 300" fill="none" stroke="transparent" stroke-width="8"/></a>
<a href="../relationships/id-74423fb9b29442f3bd3dcb71dc7fa5e3/" target="_top"><title>Composition</title><path d="M860.8 253 L923.7 300" fill="none" stroke="#333" stroke-width="1.2" marker-start="url(#diamond-filled)"/><path d="M860.8 253 L923.7 300" fill="none" stroke="transparent" stroke-width="8"/></a></svg>
